<svg width="53" height="49" fill="none" xmlns="http://www.w3.org/2000/svg"><path d="M50.292 48.612h-48c-.984 0-1.8-.816-1.8-1.8 0-.984.816-1.8 1.8-1.8h48c.984 0 1.8.816 1.8 1.8 0 .984-.816 1.8-1.8 1.8z" fill="#fff"/><path d="M20.892 5.412v43.2h10.8v-43.2c0-2.64-1.08-4.8-4.32-4.8h-2.16c-3.24 0-4.32 2.16-4.32 4.8zm-16.2 14.399v28.8h9.6v-28.8c0-2.64-.96-4.8-3.84-4.8h-1.92c-2.88 0-3.84 2.16-3.84 4.8zm33.6 12.001v16.8h9.6v-16.8c0-2.64-.96-4.8-3.84-4.8h-1.92c-2.88 0-3.84 2.16-3.84 4.8z" fill="#fff"/></svg>