<svg width="76" height="75" fill="none" xmlns="http://www.w3.org/2000/svg"><g clip-path="url(#clip0_28_5484)"><path d="M57.88 8.1v57.263H13.221a2.331 2.331 0 01-2.33-2.332V20.183L25.678 5.769h29.87A2.332 2.332 0 0157.879 8.1z" fill="#EAF6FF"/><path d="M57.88 43.12v22.243H35.665V49.229a6.11 6.11 0 016.11-6.11H57.88z" fill="#C8EFFE"/><path d="M55.548 5.769h-2.9a2.332 2.332 0 012.332 2.332v57.262h2.9V8.1a2.332 2.332 0 00-2.332-2.332z" fill="#C8EFFE"/><path d="M53.056 3.43v57.263H8.399a2.333 2.333 0 01-2.332-2.332V13.399l12.32-12.3h32.337a2.332 2.332 0 012.332 2.332z" fill="#EAF6FF"/><path d="M53.056 43.12v17.573h-17.39V49.229a6.11 6.11 0 016.109-6.11h11.28z" fill="#C8EFFE"/><path d="M50.724 1.099h-3.486A2.332 2.332 0 0149.57 3.43v57.262h3.486V3.43a2.332 2.332 0 00-2.332-2.33z" fill="#C8EFFE"/><path d="M63.824 73.901H45.26a6.11 6.11 0 01-6.11-6.11V49.23a6.11 6.11 0 016.11-6.11h18.563a6.11 6.11 0 016.11 6.11v18.563a6.11 6.11 0 01-6.11 6.11z" fill="#FE7624"/><path d="M63.824 43.119h-3.486a6.11 6.11 0 016.11 6.11v18.563a6.11 6.11 0 01-6.11 6.11h3.486a6.11 6.11 0 006.11-6.11V49.229a6.11 6.11 0 00-6.11-6.11z" fill="#EC6513"/><path d="M46.849 60.772l5.513 6.87a2.796 2.796 0 004.36 0l5.513-6.87c1.368-1.615.102-4.281-2.024-4.22h-2.138v-6.825c0-.77-.624-1.395-1.395-1.395h-4.272c-.77 0-1.395.625-1.395 1.395v6.825h-2.139c-2.124-.061-3.391 2.605-2.023 4.22z" fill="#C8EFFE"/><path d="M46.849 60.772l5.513 6.87a2.796 2.796 0 004.36 0l5.513-6.87c1.368-1.615.102-4.281-2.024-4.22h-2.138v-6.825c0-.77-.624-1.395-1.395-1.395h-4.272c-.77 0-1.395.625-1.395 1.395v6.825h-2.139c-2.124-.061-3.391 2.605-2.023 4.22z" fill="#C8EFFE"/><path d="M46.849 60.772l5.513 6.87a2.796 2.796 0 004.36 0l5.513-6.87c1.368-1.615.102-4.281-2.024-4.22h-2.138v-6.825c0-.77-.624-1.395-1.395-1.395h-4.272c-.77 0-1.395.625-1.395 1.395v6.825h-2.139c-2.124-.061-3.391 2.605-2.023 4.22z" fill="#EAF6FF"/><path d="M47.069 60.44l5.512 6.87a2.796 2.796 0 004.361 0l.306-.381a2.78 2.78 0 01-2.244-1.043l-4.45-5.446c-1.368-1.615-.1-4.281 2.024-4.22h.894c.687 0 1.244-.557 1.244-1.244v-5.58c0-.771.625-1.396 1.396-1.396h-3.486c-.77 0-1.395.625-1.395 1.395v6.825h-2.138c-2.126-.061-3.392 2.605-2.024 4.22z" fill="#FFEADD"/><path d="M6.067 13.399l12.32-12.3v9.968a2.332 2.332 0 01-2.33 2.332h-9.99z" fill="#C8EFFE"/><path d="M14.901 4.579v6.488a2.332 2.332 0 01-2.331 2.332h3.486a2.332 2.332 0 002.331-2.332V1.099l-3.486 3.48zm21.634 7.809H26.218a2.4 2.4 0 01-2.4-2.4v-.005a2.4 2.4 0 012.4-2.4h10.317a2.4 2.4 0 012.4 2.4v.005a2.4 2.4 0 01-2.4 2.4z" fill="#99E6FC"/><path d="M36.535 7.582h-3.486a2.4 2.4 0 012.4 2.4v.006a2.4 2.4 0 01-2.4 2.4h3.486a2.4 2.4 0 002.4-2.4v-.005a2.4 2.4 0 00-2.4-2.401z" fill="#62DBFB"/><path d="M63.824 42.02h-9.67V6.867h1.393c.68 0 1.234.553 1.234 1.234v29.893a1.099 1.099 0 102.197 0V8.101a3.434 3.434 0 00-3.43-3.431h-1.394V3.43A3.434 3.434 0 0050.724 0h-27.2a1.099 1.099 0 000 2.197h27.2c.68 0 1.233.554 1.233 1.234v38.59h-6.696c-3.975 0-7.209 3.233-7.209 7.208v10.365H8.4c-.68 0-1.234-.553-1.234-1.233V14.497h8.89a3.434 3.434 0 003.43-3.43V1.099A1.099 1.099 0 0017.612.32l-12.32 12.3c-.13.195-.274.206-.323.778V58.36a3.435 3.435 0 003.43 3.43h1.395v1.24a3.434 3.434 0 003.43 3.43h24.83v1.33c0 3.975 3.233 7.209 7.208 7.209h18.563c3.975 0 7.208-3.234 7.208-7.208V49.229c0-3.975-3.233-7.209-7.208-7.209zM17.289 3.748v7.319c0 .68-.553 1.233-1.233 1.233H8.722l8.567-8.552zm-4.067 60.516a1.234 1.234 0 01-1.232-1.233v-1.24h26.062v2.473h-24.83zm55.613 3.528a5.016 5.016 0 01-5.011 5.01H45.261a5.017 5.017 0 01-5.011-5.01V49.229a5.017 5.017 0 015.01-5.011h18.564a5.016 5.016 0 015.01 5.01v18.564z" fill="#000"/><path d="M51.495 68.097c1.396 1.848 4.541 1.954 6.074 0l5.505-6.86c1.968-2.23.09-6.134-2.887-6.016h-1.025v-5.726A2.497 2.497 0 0056.668 47h-4.272a2.497 2.497 0 00-2.494 2.494v5.726h-1.025c-2.945-.166-4.844 3.759-2.887 6.016l5.505 6.86zm-3.96-9.826c.06-.16.492-.84 1.328-.853H51c.607 0 1.098-.492 1.098-1.098v-6.825c0-.164.133-.297.297-.297h4.272c.164 0 .297.133.297.297v6.825c0 .606.491 1.098 1.098 1.098H60.2c1.403.134 1.825 1.367 1.167 2.434l-5.513 6.87c-.54.669-1.858.948-2.646 0l-5.513-6.87c-.312-.357-.418-1.04-.162-1.581zm-11-44.784c1.93 0 3.5-1.57 3.5-3.504 0-1.93-1.57-3.5-3.5-3.5H26.22a3.503 3.503 0 000 7.003h10.316zM24.917 9.983c0-.718.583-1.302 1.301-1.302h10.317a1.304 1.304 0 010 2.609H26.22a1.304 1.304 0 01-1.303-1.307zM13.264 21.69a1.1 1.1 0 001.099 1.1h30.444a1.099 1.099 0 100-2.198H14.363c-.607 0-1.099.492-1.099 1.099zm31.543 5.417H14.363a1.099 1.099 0 000 2.197h30.444a1.099 1.099 0 100-2.197zm0 6.514h-5.685a1.099 1.099 0 100 2.197h5.685a1.099 1.099 0 000-2.197zm-9.743 1.099c0-.607-.492-1.099-1.099-1.099H14.363a1.099 1.099 0 000 2.197h19.602c.607 0 1.099-.491 1.099-1.098zm-7.426 5.416H14.363a1.099 1.099 0 000 2.197h13.275a1.099 1.099 0 100-2.197zm0 6.514H14.363a1.099 1.099 0 000 2.197h13.275a1.099 1.099 0 100-2.197z" fill="#000"/></g><defs><clipPath id="clip0_28_5484"><path fill="#fff" transform="translate(.5)" d="M0 0h75v75H0z"/></clipPath></defs></svg>