<svg width="1920" height="564" fill="none" xmlns="http://www.w3.org/2000/svg"><g opacity=".8"><mask id="path-1-inside-1_28_5729" fill="#fff"><path d="M-547 276.592c320.177 82.503 772.825-265.843 963.052-163.402 196.415 105.65 441.647 383.868 689.628 346.971 247.98-36.897 417.58-244.759 924.32 103.129"/><path d="M-535.311 279.571c326.365 92.358 778.096-255.989 972.219-162.714 200.082 96.253 440.043 361.18 684.812 331.387 245.01-29.793 421.48-231.467 904.15 99.92"/><path d="M-523.623 282.321C-190.84 384.533 259.745 36.187 457.764 120.065 661.284 206.922 896.202 458.786 1138 436.098c242.02-22.689 425.37-218.175 883.98 96.712"/><path d="M-511.934 285.071c338.97 112.296 788.41-236.28 990.325-161.568 207.187 77.69 436.834 316.261 675.879 300.677 239.04-15.583 429.5-204.882 863.81 93.504"/><path d="M-500.245 287.821c345.158 122.151 793.91-226.883 999.492-160.881 210.854 67.607 435.001 293.803 671.063 285.094 236.07-8.479 433.4-191.59 843.65 90.295"/><path d="M-488.557 290.571C-136.981 422.576 310.396 73.543 520.104 130.378c214.521 58.21 433.396 271.114 666.486 269.739 233.08-1.375 437.29-178.069 823.47 86.857"/><path d="M-476.868 293.322C-119.104 435.41 327.356 86.147 540.73 133.816 758.918 182.63 972.522 382.7 1202.86 388.2c230.1 5.5 441.19-164.777 803.3 83.649"/><path d="M-465.18 296.072C-100.998 448.015 344.316 98.981 561.587 137.253c221.625 39.189 430.187 226.196 657.313 238.801 227.36 12.604 445.31-151.485 783.14 80.44"/><path d="M-453.491 298.822c370.37 162.027 814.537-187.236 1035.934-158.131 225.293 29.793 428.587 203.737 652.727 223.446 224.15 19.709 449.21-138.193 762.97 77.232"/><path d="M-441.802 301.572C-65.245 473.453 378.006 124.19 603.07 144.128c228.73 20.397 426.98 181.278 648.15 207.862 221.39 26.814 453.1-124.9 742.8 74.024"/><path d="M-430.114 304.322c382.975 181.965 825.08-167.298 1054.04-156.527 232.398 11.001 425.144 158.589 643.564 192.507 218.42 33.689 457.23-111.608 722.63 70.815"/><path d="M-418.425 307.301c389.392 191.82 830.351-157.672 1063.207-156.068 235.835 1.604 423.538 136.13 638.978 176.923 215.44 40.793 461.13-98.087 702.46 67.607"/><path d="M-406.736 310.051c395.58 201.904 835.393-147.589 1072.145-155.38 239.503-7.792 421.941 113.67 634.391 161.568 212.46 47.898 465.03-84.795 682.3 64.169"/><path d="M-395.048 312.801C6.72 524.559 445.617 175.067 686.265 158.108 929.206 140.92 1106.6 249.32 1316.08 304.322c209.48 55.002 469.15-71.503 662.12 60.961"/><path d="M-383.359 315.551C24.826 537.393 462.348 187.901 707.122 161.546c246.607-26.585 418.728 68.752 625.228 130.63 206.5 61.877 473.04-58.211 641.96 57.752"/><path d="M-371.67 318.302C42.703 549.998 479.308 200.735 727.749 164.983c250.045-35.98 417.121 46.065 620.641 115.276 203.52 69.21 476.94-44.919 621.79 54.543"/><path d="M-359.982 321.052C60.809 562.831 496.268 213.339 748.605 168.421c253.715-45.147 415.515 23.605 616.285 99.691 200.77 76.086 481.07-31.626 601.62 51.335"/><path d="M-348.293 323.802c426.979 251.634 861.521-97.17 1117.754-151.943 257.379-54.086 413.689 1.146 611.479 84.336 197.79 83.191 484.96-18.105 581.45 48.127"/><path d="M-336.605 326.552C96.792 588.27 530.188 239.236 790.317 175.296c261.043-63.481 412.083-21.313 606.893 68.982s488.86-4.813 561.28 44.918"/><path d="M-324.916 329.302c439.584 271.573 872.064-77.461 1135.86-150.568 264.716-72.878 410.476-43.773 602.536 53.398 192.06 97.17 492.99 8.479 541.12 41.48"/><path d="M-313.227 332.052C132.774 613.708 564.108 264.675 831.8 182.172c268.15-82.274 408.87-66.461 597.73 38.043 189.08 104.274 496.88 21.771 520.94 38.272"/><path d="M-301.539 335.031c452.19 291.511 882.378-57.523 1154.196-149.193 271.593-91.67 407.273-88.92 593.143 22.46 186.1 111.379 500.78 35.063 500.78 35.063"/><path d="M-302.685 328.156c93.28 56.377 185.185 91.212 274.798 107.025 116.428 20.397 229.876 8.709 337.824-19.251 60.735-15.813 119.866-36.668 176.246-60.96 63.486-27.501 123.075-58.669 178.768-87.545 65.548-34.147 126.054-65.086 180.83-85.253 58.443-21.543 112.073-39.419 160.889-49.273 90.99-18.105 163.64-15.126 234.92 1.146 61.88 14.209 122.85 39.189 189.31 74.482 3.21 1.833 6.65 3.437 9.86 5.271 68.52 36.897 151.95 47.439 231.93 48.814 140.04 2.521 268.84-27.73 274.57-27.043"/><path d="M-303.831 321.281c93.968 52.939 185.643 90.066 275.027 107.941 115.511 23.147 228.731 14.668 337.137-10.771 60.964-14.438 120.553-34.147 176.934-58.669 63.485-27.73 121.928-60.502 176.704-90.982 63.944-35.522 122.616-68.294 177.163-90.295 57.756-23.147 112.532-43.544 162.036-52.023 91.22-15.584 161.81-5.729 232.86 13.521 61.88 16.73 124.45 42.398 192.29 74.711 3.43 1.605 6.87 3.209 10.31 4.813 70.13 33.46 153.33 38.96 234 38.043 138.2-1.604 267.01-30.938 278.47-29.563"/><path d="M-304.977 314.406c94.426 49.272 185.873 88.69 275.256 108.629 114.595 25.667 227.585 20.625 336.45-2.063 60.964-12.834 121.241-31.626 177.85-56.606 63.256-27.96 120.783-62.336 174.413-94.42 62.11-37.127 119.407-71.503 173.496-95.108 57.068-24.751 112.761-47.668 163.182-55.002 91.45-13.292 159.97 3.667 230.56 25.897 61.89 19.48 126.29 45.376 195.04 74.94 3.44 1.375 6.88 2.979 10.55 4.354 71.73 30.251 154.7 30.71 236.06 27.272 136.6-5.729 265.17-34.147 282.13-31.855"/><path d="M-306.122 307.53c94.884 45.835 186.33 87.316 275.255 109.546 113.449 28.418 226.439 26.584 335.762 6.417 61.194-11.459 121.929-28.876 178.538-54.315 63.027-28.188 119.637-64.169 172.121-97.857 60.506-38.731 116.199-74.941 169.6-99.921 56.38-26.355 113.219-51.793 164.328-57.981 91.448-11 157.908 13.063 228.498 38.043 61.88 22.001 127.89 48.585 197.79 75.17 3.44 1.375 7.11 2.52 10.78 3.896 73.34 27.042 156.07 22.23 238.12 16.5 134.77-9.625 263.34-37.355 286.03-34.376"/><path d="M-307.268 300.655c95.342 42.397 186.789 85.941 275.485 110.233 112.531 30.939 225.292 32.543 335.074 14.897 61.422-10.084 122.387-26.355 179.225-52.023 63.027-28.189 118.72-66.232 170.059-101.295 58.672-40.335 112.76-78.149 165.932-104.963 55.693-28.188 113.678-55.918 165.704-60.96 91.679-8.709 156.079 22.459 226.209 50.418 61.88 24.751 129.49 51.794 200.77 75.399l11 3.438c74.95 23.834 157.45 13.979 240.19 5.729 132.93-13.292 261.28-40.564 289.92-36.897"/><path d="M-308.414 293.78c95.801 38.96 187.018 84.336 275.714 111.15 111.615 33.689 224.147 38.501 334.386 23.605 61.423-8.48 123.075-23.834 180.143-49.731 62.798-28.418 117.574-68.065 167.766-104.962 57.068-41.71 109.552-81.358 162.266-109.775 55.005-29.793 113.907-60.044 166.849-63.711 91.91-6.417 154.24 31.855 224.15 62.794 61.88 27.272 131.32 54.773 203.52 75.628 3.66 1.146 7.33 2.062 11.23 2.979 76.55 20.626 158.83 5.729 242.25-5.271 130.87-16.959 259.21-43.543 293.36-39.189"/><path d="M-309.56 286.905c96.488 35.522 187.476 82.961 275.943 111.837 110.698 36.21 223.001 44.46 333.699 32.085 61.652-7.105 123.762-21.085 180.83-47.44 62.798-28.647 116.428-69.898 165.704-108.4 55.234-43.314 106.343-84.565 158.598-114.587 54.547-31.397 114.366-64.17 167.996-66.69 91.9-4.125 152.41 41.481 222.08 75.169 61.89 30.022 133.16 57.753 206.27 75.857 3.9.917 7.57 1.834 11.46 2.521 78.16 17.188 160.21-2.521 244.32-16.042 129.26-20.855 257.61-46.752 297.49-41.939"/><path d="M-310.706 280.029c96.947 31.856 187.935 81.587 276.172 112.755 109.782 38.73 221.855 50.647 333.012 40.564 61.881-5.501 124.449-18.564 181.747-45.148 62.568-28.876 115.282-71.732 163.411-111.837 53.631-44.69 103.135-87.775 154.703-119.63 53.859-33.001 114.594-68.523 169.141-69.67 92.13-2.062 150.35 50.878 219.79 87.546 61.88 32.772 134.77 60.96 209.25 76.086 3.9.687 7.79 1.375 11.69 2.063 79.76 13.979 161.58-10.543 246.38-26.814 127.43-24.293 255.54-49.96 301.15-44.231"/><path d="M-312.081 273.154c97.405 28.418 188.393 80.211 276.401 113.442 108.865 41.251 220.709 56.606 332.324 49.272 61.881-4.125 125.137-16.042 182.435-42.855 62.339-29.106 114.136-73.336 161.349-115.275 52.025-46.065 99.697-91.212 151.035-124.442 53.172-34.377 115.053-70.816 170.287-72.42 92.13-2.75 148.51 60.273 217.73 99.921 61.88 35.292 136.6 63.939 212 76.315 3.9.687 8.02 1.146 11.92 1.604 81.36 10.771 162.95-18.792 248.44-37.585 125.59-27.73 253.71-53.168 305.05-46.751"/><path d="M-313.227 266.279c97.863 24.98 188.622 78.607 276.401 114.358 107.948 43.773 219.563 62.565 331.637 57.752 62.11-2.75 125.824-13.292 183.351-40.793 62.339-29.334 112.99-75.169 159.057-118.713 50.192-47.668 96.489-94.42 147.369-129.254 52.484-35.981 115.282-76.774 171.433-75.399 92.359 2.292 146.679 69.898 215.439 112.067 61.88 38.043 138.43 66.919 214.75 76.544 4.12.459 8.02.917 12.15 1.146 82.96 7.563 164.32-26.813 250.5-48.356 123.76-31.168 251.88-56.377 308.72-49.273"/><path d="M-314.373 259.404c98.322 21.542 189.081 77.232 276.63 115.046 107.032 46.293 218.418 68.523 330.95 66.231 62.339-1.375 126.512-10.771 184.038-38.501 62.11-29.564 112.074-77.003 156.765-122.151 48.588-49.043 93.28-97.628 143.702-134.067 51.797-37.585 115.511-81.128 172.579-78.378 92.359 4.354 144.619 79.295 213.379 124.442 61.88 40.793 140.03 69.899 217.73 76.774 4.12.458 8.25.687 12.37.687 84.57 4.125 165.71-34.605 252.57-59.127 121.93-34.376 250.04-59.585 312.61-51.793"/><path d="M-315.519 252.528c99.009 17.876 189.539 75.628 276.86 115.963 106.114 48.814 217.271 74.482 330.261 74.94 62.34.229 126.971-8.25 184.956-36.21 61.881-29.792 110.927-78.607 154.702-125.587 46.984-50.419 90.071-100.837 139.805-139.11 51.109-39.189 115.97-85.253 173.726-81.357 92.589 6.417 142.789 88.691 211.079 136.818 61.88 43.543 141.87 72.877 220.48 77.002 4.13.23 8.48.23 12.61.459 86.17.917 167.08-42.627 254.63-69.899 120.09-37.584 247.98-62.794 316.28-54.085"/><path d="M-316.665 245.653c99.468 14.438 189.997 74.253 277.09 116.65 105.197 51.335 216.124 80.441 329.573 83.42 62.568 1.604 127.658-5.5 185.643-33.918 61.881-30.022 109.781-80.44 152.411-129.255 45.379-51.793 86.633-104.045 136.138-143.922 50.65-40.793 116.199-89.607 174.871-84.107 92.589 8.48 140.949 98.316 209.019 149.193 61.88 46.064 143.7 75.857 223.23 77.232h12.84c87.77-2.292 168.68-50.418 256.46-80.899 118.49-40.793 246.15-66.002 320.17-56.606"/><path d="M-317.811 238.778c99.926 11 190.456 72.648 277.318 117.337 104.281 53.627 214.98 86.17 328.886 91.9 62.798 2.979 128.346-2.98 186.56-31.627 61.652-30.251 108.865-82.273 150.348-132.692 43.775-53.168 83.425-107.254 132.471-148.735C807.735 92.564 874.429 41 933.789 47.875c92.821 10.542 138.891 107.712 206.961 161.568 61.88 48.815 145.3 78.607 226.21 77.462 4.35 0 8.71-.23 13.06-.459 89.38-5.5 170.06-58.21 258.53-91.67 116.65-43.772 244.31-69.211 324.07-59.127"/><path d="M-318.957 231.903c100.385 7.562 190.914 71.044 277.318 118.254 103.365 56.148 213.834 92.128 328.199 100.608 62.798 4.354 129.033-.459 187.247-29.335 61.423-30.48 107.719-83.878 148.056-136.13 42.171-54.543 80.216-110.462 128.804-153.776 49.276-44.002 116.887-98.087 177.164-90.066 92.819 12.605 137.059 117.338 204.669 173.944 61.88 51.564 147.14 81.586 228.96 77.69 4.35-.229 8.93-.687 13.29-.916 90.99-8.709 171.43-66.003 260.59-102.442 115.05-46.981 242.25-72.419 327.74-61.648"/><path d="M-320.103 225.027c100.843 3.896 191.144 69.67 277.548 118.942 102.447 58.669 212.687 98.087 327.511 109.088 63.027 5.729 129.721 2.291 187.935-27.043 61.422-30.71 106.802-85.712 145.993-139.568 40.566-55.918 77.007-113.671 125.137-158.589C792.609 82.251 861.366 25.416 922.33 34.812c93.05 14.438 134.99 126.734 202.6 186.09 61.88 54.315 148.98 84.566 231.71 77.92 4.59-.459 8.94-.917 13.53-1.375 92.59-12.147 173.03-73.795 262.65-113.213 113.44-49.96 240.41-75.628 331.63-64.169"/><path d="M-321.249 218.152c101.531.458 191.602 68.065 277.777 119.859 101.53 60.96 211.312 104.045 326.823 117.566 63.256 7.334 130.409 4.813 188.852-24.98 61.193-30.938 105.885-87.315 143.701-143.005 38.963-57.294 73.799-116.879 121.241-163.402C785.275 77.21 854.719 17.395 916.6 28.395c93.28 16.5 133.16 136.359 200.31 198.466 61.65 57.064 150.58 87.315 234.69 78.148 4.58-.458 9.17-1.145 13.75-1.833 94.2-15.355 174.64-81.357 264.72-123.984 111.84-52.71 238.58-78.607 335.3-66.46"/><path d="M-322.395 211.277c101.989-2.979 192.06 66.461 278.006 120.546 100.614 63.481 210.166 110.004 326.136 126.275 63.256 8.709 131.096 7.334 189.539-22.688 61.194-31.168 104.74-89.149 141.41-146.443 37.358-58.669 70.59-120.088 117.574-168.444 47.442-48.585 118.032-111.15 180.6-98.774 93.28 18.563 131.1 145.755 198.25 210.841 61.65 59.815 152.41 90.295 237.44 78.378 4.81-.688 9.4-1.375 13.98-2.292 95.8-18.563 176.25-89.149 266.78-134.755 110.23-55.689 236.75-81.815 339.19-68.981"/><path d="M-323.541 204.402c102.448-6.417 192.748 64.856 278.236 121.462 99.697 65.774 209.02 115.963 325.448 134.755 63.485 10.084 131.554 10.084 190.456-20.396 60.964-31.397 103.822-90.754 139.347-150.11 35.982-60.044 67.381-123.296 113.906-173.256C770.607 66.667 842.343 1.352 905.599 15.103c93.509 20.396 129.031 155.381 195.961 223.216 61.65 62.565 154.01 93.046 240.19 78.608 4.81-.688 9.62-1.834 14.21-2.751 97.4-21.771 177.85-96.711 268.83-145.526 108.64-58.439 234.69-85.024 342.87-71.273"/><path d="M-324.687 197.526c102.906-9.854 193.206 63.253 278.465 122.151 99.01 68.065 207.874 122.15 324.76 143.234 63.715 11.459 132.242 12.605 191.144-18.105 60.735-31.626 102.906-92.587 137.055-153.547 34.378-61.419 64.173-126.505 110.24-178.069C763.273 61.396 835.697-6.669 899.87 8.457c93.738 22.23 127.2 165.006 193.89 235.592 61.66 65.315 155.62 95.795 243.17 78.836 4.82-.917 9.63-2.063 14.44-3.208 99.01-24.98 179.46-104.275 270.9-156.527 107.49-61.419 232.86-88.232 346.77-74.024"/><path d="M-325.833 190.88c103.364-13.521 193.665 61.878 278.465 123.067C50.725 384.533 159.36 442.056 276.705 465.89c63.714 13.063 132.929 15.126 192.06-15.813 60.735-31.855 101.989-94.191 134.992-156.985 33.004-62.794 60.965-129.713 106.344-183.111C755.71 56.584 829.279-14.231 894.14 2.498c93.967 24.293 125.14 174.403 191.83 247.968 61.65 68.065 157.45 98.774 245.92 79.065 107.72-24.063 191.6-112.754 287.63-170.964 106.12-64.17 231.02-91.441 350.66-76.316"/></mask><path d="M416.052 113.19l-.119.22.119-.22zm20.856 3.667l.108-.226-.108.226zm684.812 331.387l-.03-.248.03.248zM457.764 120.065l.098-.23-.098.23zM1138 436.098l-.03-.249.03.249zM478.391 123.503l.088-.234-.001-.001-.087.235zm20.856 3.437l-.076.238.076-.238zm671.063 285.094l-.01-.25.01.25zM520.104 130.378l.065-.241-.065.241zm20.626 3.438l.055-.244-.055.244zM1202.86 388.2v-.25.25zM561.587 137.253l.043-.246-.043.246zM1218.9 376.054l-.01.249.01-.249zM582.443 140.691l.033-.248h-.001l-.032.248zm20.627 3.437l.022-.249-.022.249zm648.15 207.862l.03-.248-.03.248zM623.926 147.795l.012-.249-.012.249zm643.564 192.507l-.04.247.04-.247zM644.782 151.233l-.002.25.002-.25zm20.627 3.438l-.008-.25.008.25zm20.856 3.437l.018.25-.018-.25zm20.857 3.438l.026.248h.001l-.027-.248zm20.627 3.437l-.036-.247.036.247zm20.856 3.438l-.044-.246.044.246zm20.856 3.438l-.051-.245h-.001l.052.245zm20.856 3.437l-.059-.243v.001l.059.242zm20.627 3.438l-.066-.241h-.001l.067.241zm20.856 3.438l-.073-.239.073.239zm597.73 38.043l-.13.218v.001l.13-.219zm-576.873-34.377l.079.237h.001l-.08-.237zm593.143 22.46l-.13.214.13-.214zM-27.887 435.181l-.044.246.044-.246zm337.824-19.251l.063.242-.063-.242zm176.246-60.96l.099.229h.001l-.1-.229zm178.768-87.545l.115.222v-.001l-.115-.221zm180.83-85.253l.086.234-.086-.234zm160.889-49.273l-.05-.245.05.245zm234.92 1.146l.06-.244-.06.244zm189.31 74.482l.12-.217v-.004l-.12.221zm9.86 5.271l-.13.217.01.003.12-.22zm231.93 48.814l.01-.25-.01.25zM-28.804 429.222l.05-.245-.05.245zm337.137-10.771l.057.244.001-.001-.058-.243zm176.934-58.669l.099.23.001-.001-.1-.229zM661.971 268.8l-.121-.219.121.219zm177.163-90.295l-.093-.232.093.232zm162.036-52.023l-.04-.246.04.246zm232.86 13.521l-.07.242.07-.242zm192.29 74.711l-.11.226v.001l.11-.227zm10.31 4.813l.11-.226-.11.226zm234 38.043v.25-.25zM-29.72 423.035l.054-.244-.055.244zm336.449-2.063l.051.245-.051-.245zm177.85-56.606l.101.229v-.001l-.101-.228zm174.413-94.42l-.128-.215.128.215zm173.496-95.108l-.099-.229h-.001l.1.229zm163.182-55.002l-.036-.247.036.247zm230.56 25.897l-.07.238.07-.238zm195.04 74.94l-.09.23v.002l.09-.232zm10.55 4.354l.09-.23-.01-.004-.08.234zm236.06 27.272l-.01-.25.01.25zM-30.867 417.076l.061-.242-.06.242zm335.762 6.417l.045.246h.001l-.046-.246zm178.538-54.315l-.102-.228.102.228zm172.121-97.857l-.135-.211.135.211zm169.6-99.921l-.106-.226.106.226zm164.328-57.981l-.029-.248h-.001l.03.248zm228.498 38.043l.09-.235v-.001l-.09.236zm197.79 75.17l.1-.233-.01-.001-.09.234zm10.78 3.896l-.09.234.09-.234zm238.12 16.5l.02.25v-.001l-.02-.249zM-31.783 410.888l.066-.241-.066.241zm335.074 14.897l.039.247.001-.001-.04-.246zm179.225-52.023l-.102-.228.102.228zm170.059-101.295l.141.206-.141-.206zm165.932-104.963l.113.224v-.001l-.113-.223zm165.704-60.96l-.024-.249.024.249zm226.209 50.418l.09-.232-.09.232zm200.77 75.399l-.08.237.01.002.07-.239zm11 3.438l.08-.239-.08.239zm240.19 5.729l.03.249-.03-.249zM-32.7 404.93l-.072.239.072-.239zm334.386 23.605l.034.248.001-.001-.035-.247zm180.143-49.731l-.103-.228.103.228zm167.766-104.962l-.147-.202h-.001l.148.202zm162.266-109.775l.118.22h.001l-.119-.22zm166.849-63.711l.018.249-.018-.249zm224.15 62.794l-.1.229.1-.229zm203.52 75.628l.07-.239v-.001l-.07.24zm11.23 2.979l.06-.241-.01-.002-.05.243zm242.25-5.271l-.03-.248.03.248zM-33.617 398.742l.078-.238-.078.238zm333.699 32.085l.028.248h.001l-.029-.248zm180.83-47.44l-.104-.227h-.001l.105.227zm165.704-108.4l.154.197-.154-.197zM805.214 160.4l.125.217-.125-.217zM973.21 93.71l-.011-.25h-.001l.012.25zm222.08 75.169l.11-.225-.11.225zm206.27 75.857l-.06.243.01.001.05-.244zm11.46 2.521l.06-.244-.01-.002-.05.246zm244.32-16.042l.04.247-.04-.247zM-34.534 392.784l-.083.235.083-.235zm333.012 40.564l-.022-.25-.001.001.023.249zM480.225 388.2l-.105-.227h-.001l.106.227zm163.411-111.837l.16.192-.16-.192zm154.703-119.63l-.131-.213h-.001l.132.213zm169.141-69.67l.005.25h.001l-.006-.25zm219.79 87.546l.12-.221-.12.221zm209.25 76.086l-.05.245.01.001.04-.246zm11.69 2.063l-.04.246.04-.246zm246.38-26.814l-.05-.246v.001l.05.245zM-35.68 386.596l.089-.234-.089.234zm332.324 49.272l.017.25-.017-.25zm182.435-42.855l-.106-.227.106.227zm161.349-115.275l-.166-.188v.001l.166.187zm151.035-124.442l-.136-.21.136.21zm170.287-72.42l.008.25-.008-.25zm217.73 99.921l-.12.216v.001l.12-.217zm212 76.315l.04-.246v-.001l-.04.247zm11.92 1.604l.03-.248-.03.248zm248.44-37.585l.05.245v-.001l-.05-.244zM-36.825 380.637l-.095.232.095-.232zm331.636 57.752l.011.25-.011-.25zm183.351-40.793l-.107-.226-.001.001.108.225zm159.057-118.713l.172.182-.172-.182zm147.369-129.254l.141.206-.141-.206zM956.021 74.23l.006-.25-.006.25zm215.439 112.067l.13-.213-.13.213zm214.75 76.544l-.03.248v.001l.03-.249zm12.15 1.146l.02-.249-.01-.001-.01.25zm250.5-48.356l.06.243-.06-.243zM-37.742 374.45l.099-.23-.1.23zm330.949 66.231l.005.25-.005-.25zm184.038-38.501l-.107-.226h-.001l.108.226zM634.01 280.029l-.177-.176.177.176zm143.702-134.067l.146.203.001-.001-.147-.202zm172.579-78.378l-.012.25.012-.25zm213.379 124.442l.13-.209-.13.209zM1381.4 268.8l.02-.249-.02.249zm12.37.687l.01-.25h-.01v.25zm252.57-59.127l-.07-.241v.001l.07.24zM-38.659 368.491l-.105.227.105-.227zm330.261 74.94l-.001.25.001-.25zm184.956-36.21l-.109-.225.109.225zM631.26 281.634l-.183-.171.183.171zm139.805-139.11l-.152-.198.152.198zm173.726-81.357l.017-.25h-.001l-.016.25zm211.079 136.818l-.14.204.14-.204zm220.48 77.002l.02-.249-.02.249zm12.61.459l-.02.25h.02v-.25zm254.63-69.899l.07.239-.07-.239zM-39.576 362.303l.11-.224v-.001l-.11.225zm329.574 83.42l-.007.25.007-.25zm185.643-33.918l-.109-.225-.001.001.11.224zM628.052 282.55l-.188-.164h-.001l.189.164zM764.19 138.628l-.157-.194.157.194zm174.871-84.107l-.023.249.023-.249zm209.019 149.193l-.15.2v.001l.15-.201zm223.23 77.232v.25-.25zm12.84 0v.25-.25zm256.46-80.899l-.08-.236.08.236zM-40.493 356.115l-.114.223.114-.223zm328.886 91.9l-.012.249h.001l.011-.249zm186.56-31.627l-.11-.224.11.224zm150.348-132.692l-.193-.159.193.159zm132.471-148.735l.162.191-.162-.191zm176.017-87.086l-.028.248.028-.248zm206.961 161.568l-.16.196v.001l.16-.197zm226.21 77.462v-.25h-.01l.01.25zm13.06-.459l.01.25h.01l-.02-.25zm258.53-91.67l-.09-.234.09.234zM-41.638 350.157l-.12.219v.001l.12-.22zM286.56 450.765l-.018.249h.001l.017-.249zm187.247-29.335l.111.224-.111-.224zM621.863 285.3l-.197-.153v.001l.197.152zm128.804-153.776l.167.186-.167-.186zm177.164-90.066l.033-.248-.033.248zM1132.5 215.402l-.16.192.16-.192zm228.96 77.69l.01.25-.01-.25zm13.29-.916l.01.25.01-.002-.02-.248zm260.59-102.442l-.1-.231.1.231zM-42.555 343.969l.124-.217-.124.217zm327.511 109.088l-.024.248.001.001.023-.249zm187.935-27.043l-.112-.224-.001.001.113.223zm145.993-139.568l.202.147-.202-.147zm125.137-158.589l.171.183v-.001l-.171-.182zM922.33 34.812l.038-.247-.038.247zm202.6 186.09l-.16.188.16-.188zm231.71 77.92l.02.249.01-.001-.03-.248zm13.53-1.375l.02.249.01-.001-.03-.248zm262.65-113.213l.1.229-.1-.229zM-43.472 338.011l-.129.214.129-.214zm326.823 117.566l-.029.249h.001l.028-.249zm188.852-24.98l-.113-.223v.001l.113.222zm143.701-143.005l-.206-.14.206.14zM737.145 124.19l-.174-.179-.001.001.175.178zM916.6 28.395l-.043.246.043-.246zm200.31 198.466l.17-.184-.17.184zm234.69 78.148l-.02-.248h-.01l.03.248zm13.75-1.833l.04.247-.04-.247zm264.72-123.984l-.11-.226.11.226zM-44.389 331.823l.134-.212-.134.212zm326.136 126.275l-.035.248h.001l.034-.248zm189.539-22.688l-.113-.223-.001.001.114.222zm141.41-146.443l.21.135.001-.001-.211-.134zM730.27 120.523l-.179-.174h-.001l.18.174zm180.6-98.774l.049-.245-.049.245zm198.25 210.841l.17-.179-.17.179zm237.44 78.378l.03.248v-.001l-.03-.247zm13.98-2.292l-.05-.245.05.245zm266.78-134.755l.11.224v-.001l-.11-.223zM-45.305 325.864l-.139.209.139-.209zm325.448 134.755l-.04.247.04-.247zm190.456-20.396l-.115-.223v.001l.115.222zm139.347-150.11l-.215-.128.215.128zm113.906-173.256l-.183-.171.183.171zM905.599 15.103l.053-.244-.053.244zm195.961 223.216l.17-.175-.17.175zm240.19 78.608l-.04-.248-.01.001.05.247zm14.21-2.751l.04.246.01-.002-.05-.244zm268.83-145.526l.12.221v-.001l-.12-.22zM-46.222 319.677l-.142.205v.001l.142-.206zm324.76 143.234l-.044.246.044-.246zm191.144-18.105l-.116-.221.116.221zm137.055-153.547l.218.122-.218-.122zm110.24-178.069l-.187-.167.187.167zM899.87 8.457l.057-.243-.057.243zm193.89 235.592l.19-.172-.19.172zm243.17 78.836l-.04-.245.04.245zm14.44-3.208l.06.243v-.001l-.06-.242zm270.9-156.527l.13.217-.13-.217zM-47.368 313.947l-.146.203.146-.203zM276.705 465.89l.05-.244v-.001l-.05.245zm192.06-15.813l.116.222-.116-.222zm241.336-340.096l-.19-.162v.001l.19.161zM894.14 2.498l.062-.242-.062.242zm191.83 247.968l.19-.168-.19.168zm245.92 79.065l.05.244-.05-.244zm287.63-170.964l-.13-.214.13.214zM-547.062 276.834c80.097 20.639 168.464 14.329 258.915-5.129 90.452-19.459 183.009-52.072 271.49-84.056 88.487-31.987 172.89-63.341 247.061-80.299 74.178-16.96 138.057-19.505 185.529 6.06l.237-.44c-47.641-25.656-111.678-23.073-185.878-6.108-74.208 16.967-158.645 48.335-247.12 80.317-88.482 31.985-181.01 64.586-271.424 84.037-90.414 19.451-178.695 25.746-258.686 5.134l-.124.484zM415.933 113.41c49.086 26.403 101.228 63.591 155.714 103.955 54.482 40.36 111.307 83.895 169.743 122.973 116.863 78.153 240.236 138.534 364.33 120.07l-.08-.494c-123.887 18.433-247.12-41.846-363.972-119.991-58.423-39.07-115.232-82.593-169.723-122.96C517.459 176.6 465.292 139.392 416.17 112.97l-.237.44zm689.787 346.998c62.02-9.228 119.14-29.146 177.82-48.383 58.69-19.24 118.95-37.802 187.29-44.345 136.67-13.084 305.69 21.894 559.03 195.816l.28-.412c-253.4-173.966-422.54-209.001-559.36-195.902-68.4 6.549-128.7 25.127-187.39 44.368-58.7 19.242-115.78 39.143-177.75 48.364l.08.494zM-535.379 279.812c81.644 23.104 171.115 18.643 262.412.427 91.299-18.217 184.444-50.192 273.44-82.134 89.005-31.944 173.853-63.85 248.584-81.944 74.739-18.095 139.295-22.358 187.743.921l.216-.451c-48.614-23.358-113.32-19.055-188.077-.956-74.764 18.102-159.645 50.021-248.634 81.96-88.998 31.941-182.111 63.905-273.369 82.113-91.259 18.209-180.641 22.657-262.179-.418l-.136.482zm972.178-162.73c50.001 24.054 102.5 58.649 156.957 96.556 54.451 37.902 110.862 79.117 168.665 116.39C878.023 404.57 999.273 463.4 1121.75 448.492l-.06-.496c-122.288 14.885-243.405-43.852-358.998-118.388-57.794-37.267-114.187-78.469-168.65-116.381-54.459-37.907-106.986-72.523-157.026-96.596l-.217.451zm684.951 331.41c61.28-7.451 118.27-25.65 176.81-43.567 58.54-17.918 118.63-35.558 186.14-41.915 135-12.712 299.73 19.69 541.03 185.36l.29-.412c-241.37-165.717-406.22-198.172-541.37-185.445-67.57 6.362-127.7 24.016-186.24 41.934-58.55 17.921-115.49 36.104-176.72 43.549l.06.496zM-523.696 282.56c83.248 25.569 173.851 22.957 266.006 5.98 92.156-16.977 185.882-48.323 275.38-80.236 89.508-31.916 174.779-64.395 250.053-83.657 75.281-19.263 140.5-25.287 189.924-4.352l.195-.46c-49.587-21.004-114.948-14.939-190.243 4.328-75.304 19.269-160.607 51.76-250.096 83.67-89.498 31.912-183.191 63.246-275.303 80.215-92.113 16.969-182.627 19.571-265.769-5.966l-.147.478zm981.362-162.265c50.859 21.705 103.686 53.722 158.105 89.193 54.413 35.466 110.426 74.391 167.625 109.885 114.397 70.99 233.634 128.326 354.624 116.974l-.05-.498c-120.8 11.336-239.92-45.916-354.311-116.9-57.195-35.493-113.183-74.402-167.614-109.88-54.424-35.473-107.282-67.51-158.183-89.234l-.196.46zm680.354 316.052c60.53-5.675 117.39-22.154 175.78-38.75 58.39-16.598 118.31-33.314 184.99-39.485 133.35-12.34 293.78 17.486 523.05 174.904l.28-.413c-229.34-157.468-389.89-187.342-523.37-174.989-66.74 6.176-126.7 22.905-185.09 39.502-58.39 16.598-115.21 33.063-175.69 38.733l.05.498zM-512.013 285.308c169.579 56.179 366.762-2.927 546.72-66.691 89.996-31.888 175.682-64.94 251.495-85.355 75.821-20.417 141.702-28.173 192.102-9.525l.174-.469c-50.558-18.707-116.574-10.908-192.406 9.511-75.838 20.422-161.557 53.486-251.531 85.367-179.983 63.772-377.004 122.805-546.396 66.688l-.158.474zm990.316-161.571c51.774 19.414 104.959 48.882 159.356 81.927 54.381 33.037 110.009 69.672 166.597 103.37 113.193 67.408 230.424 123.193 350.034 115.396l-.04-.499c-119.44 7.787-236.55-47.922-349.738-115.326-56.603-33.708-112.175-70.309-166.594-103.368-54.403-33.05-107.62-62.537-159.439-81.968l-.176.468zM1154.29 424.43c59.78-3.898 116.53-18.658 174.78-33.933 58.26-15.276 118.03-31.07 183.9-37.055 131.72-11.968 287.85 15.282 504.97 164.448l.28-.412c-217.19-149.221-373.44-176.514-505.29-164.534-65.92 5.99-125.73 21.794-183.98 37.07-58.26 15.276-114.96 30.023-174.7 33.917l.04.499zM-500.329 288.057c172.673 61.108 371.232 4.351 552.254-59.385 90.527-31.874 176.664-65.492 253.027-87.021 76.37-21.53 142.9-30.949 194.219-14.473l.153-.476c-51.472-16.525-118.13-7.065-194.507 14.468-76.384 21.535-162.555 55.165-253.058 87.03-181.039 63.743-379.436 120.428-551.921 59.386l-.167.471zm999.5-160.879c105.394 33.793 214.103 107.218 326.031 171.145 111.902 63.912 227.008 118.318 345.118 113.961l-.02-.5c-117.95 4.352-232.95-49.985-344.85-113.896-111.875-63.896-220.666-137.372-326.126-171.186l-.153.476zm671.149 285.106c59.05-2.121 115.66-15.161 173.77-29.115 58.11-13.956 117.71-28.826 182.75-34.625 130.06-11.596 281.89 13.078 486.98 153.991l.28-.412c-205.17-140.972-357.12-165.685-487.31-154.077-65.08 5.803-124.72 20.683-182.82 34.636-58.11 13.955-114.68 26.984-173.67 29.102l.02.5zM-488.645 290.805c175.882 66.038 375.702 11.746 557.701-51.906 91.017-31.831 177.567-66.001 254.485-88.665 76.922-22.666 144.143-33.804 196.497-19.615l.131-.482c-52.5-14.229-119.841-3.051-196.769 19.617-76.933 22.669-163.521 56.852-254.509 88.673-182.01 63.656-381.666 117.877-557.36 51.91l-.176.468zM520.038 130.619c107.223 29.095 215.533 96.85 326.225 157.193 110.669 60.33 223.707 113.243 340.327 112.555l-.01-.5c-116.47.687-229.408-52.164-340.078-112.494-110.647-60.318-219.035-128.121-326.333-157.236l-.131.482zm666.552 269.748c58.3-.344 114.79-11.651 172.74-24.27 57.96-12.62 117.39-26.552 181.6-32.165 128.4-11.225 275.94 10.817 468.99 143.249l.28-.413c-193.14-132.495-340.79-154.569-469.31-143.334-64.25 5.616-123.71 19.557-181.66 32.175-57.96 12.619-114.4 23.915-172.65 24.258l.01.5zM-476.96 293.554c178.976 71.082 380.114 19.254 563.12-44.342 91.52-31.804 178.489-66.545 255.937-90.364 77.45-23.819 145.305-36.69 198.579-24.788l.109-.488c-53.414-11.933-121.381.978-198.835 24.799-77.455 23.821-164.469 58.577-255.955 90.369-183.01 63.597-383.984 115.356-562.771 44.349l-.184.465zM540.676 134.06c109.053 24.398 216.963 86.596 326.448 143.413 109.464 56.805 220.496 108.225 335.726 110.977l.01-.5c-115.1-2.748-226.038-54.113-335.506-110.921-109.448-56.798-217.434-119.041-326.569-143.457l-.109.488zm662.174 254.39c57.56 1.376 113.92-8.24 171.72-19.549 57.82-11.31 117.08-24.312 180.46-29.725 126.74-10.823 269.98 8.7 450.99 132.879l.29-.412c-181.11-124.247-324.47-143.798-451.33-132.965-63.41 5.416-122.7 18.425-180.5 29.732-57.81 11.309-114.12 20.914-171.62 19.54l-.01.5zm-1668.126-92.148c182.185 76.011 384.641 26.705 568.652-36.777 92.029-31.749 179.411-67.031 257.406-91.997 77.992-24.966 146.51-39.585 200.761-30.029l.087-.492c-54.384-9.58-123.007 5.078-201 30.044-77.989 24.965-165.435 60.269-257.417 92.002-184.009 63.481-386.3 112.72-568.296 36.788l-.193.461zM561.543 137.499c110.77 19.587 218.279 76.115 326.528 129.348 108.23 53.224 217.199 103.151 330.819 109.456l.02-.499c-113.5-6.299-222.38-56.178-330.619-109.406-108.22-53.219-215.805-109.789-326.661-129.391l-.087.492zm657.347 238.804c56.87 3.153 113.14-4.744 170.83-14.731 57.69-9.989 116.79-22.067 179.34-27.294 125.09-10.452 263.98 6.496 432.84 122.422l.28-.412c-168.97-115.999-307.97-132.969-433.16-122.508-62.58 5.229-121.71 17.314-179.39 27.299-57.68 9.987-113.91 17.875-170.72 14.725l-.02.499zm-1672.481-77.252c185.279 81.055 388.996 34.213 574.013-29.213 46.257-15.857 91.349-32.753 134.695-48.948 43.347-16.195 84.946-31.69 124.222-44.748 78.561-26.118 147.785-42.471 203.071-35.203l.065-.496c-55.411-7.285-124.732 9.106-203.294 35.225-39.286 13.061-80.893 28.559-124.239 44.754-43.347 16.195-88.433 33.089-134.682 48.943-185.009 63.423-388.561 110.2-573.651 29.228l-.2.458zM582.41 140.939c112.601 14.89 219.71 65.805 326.722 115.483 106.998 49.671 213.898 98.105 326.018 107.964l.04-.498c-112.02-9.85-218.84-58.243-325.847-107.92-106.993-49.669-214.176-100.623-326.867-115.525l-.066.496zm652.74 223.447c56.07 4.93 112.19-1.248 169.71-9.914 57.54-8.667 116.47-19.823 178.21-24.864 123.46-10.08 258.11 4.293 414.93 111.967l.28-.412c-156.93-107.752-291.7-122.14-415.25-112.053-61.76 5.043-120.73 16.204-178.24 24.868-57.52 8.665-113.59 14.834-169.6 9.91l-.04.498zm-1677.056-62.587c188.373 85.984 393.408 41.607 579.431-21.734 46.508-15.836 91.832-32.859 135.412-49.328 43.582-16.47 85.418-32.387 124.958-46.012 79.089-27.254 148.945-45.327 205.153-40.347l.044-.499c-56.325-4.989-126.273 13.119-205.36 40.373-39.548 13.628-81.393 29.548-124.972 46.017-43.58 16.47-88.897 33.49-135.397 49.323-186.008 63.336-390.877 107.65-579.061 21.752l-.208.455zM603.048 144.378c114.318 10.194 221.027 55.495 326.831 101.59 105.791 46.089 210.681 92.973 321.311 106.271l.06-.497c-110.54-13.287-215.36-60.135-321.171-106.232-105.795-46.091-212.575-91.428-326.987-101.631l-.044.499zm648.142 207.861c55.38 6.707 111.4 2.249 168.78-5.096 57.4-7.347 116.15-17.578 177.05-22.433 121.78-9.708 252.07 2.09 396.86 101.51l.28-.412c-144.91-99.504-275.32-111.311-397.18-101.597-60.91 4.857-119.7 15.093-177.07 22.436-57.38 7.343-113.35 11.795-168.66 5.095l-.06.497zm-1681.411-47.691c191.581 91.027 397.934 49.172 584.963-14.055 93.502-31.609 182.235-68.584 261.838-96.96 79.63-28.386 150.149-48.178 207.334-45.488l.024-.499c-57.295-2.696-127.899 17.131-207.526 45.516-79.655 28.395-168.314 65.343-261.83 96.957-187.008 63.221-393.195 105.015-584.588 14.077l-.215.452zM623.914 148.045c116.152 5.498 222.403 45.129 326.942 87.641 104.524 42.507 207.354 87.899 316.594 104.863l.08-.494c-109.18-16.953-211.93-62.315-316.486-104.832-104.539-42.512-210.861-82.175-327.106-87.677l-.024.499zm643.536 192.504c54.64 8.428 110.54 5.66 167.8-.374 57.27-6.036 115.86-15.336 175.96-19.991 120.14-9.308 246.13-.028 378.77 91.14l.28-.413c-132.76-91.256-258.88-100.539-379.09-91.226-60.09 4.655-118.74 13.961-175.97 19.993-57.25 6.033-113.1 8.795-167.67.377l-.08.494zm-1685.986-33.024c194.79 95.956 402.46 56.509 590.495-6.69 94.012-31.598 183.153-69.148 263.306-98.684 80.171-29.543 151.352-51.069 209.515-50.668l.004-.5c-58.265-.401-129.525 21.158-209.692 50.699-80.187 29.548-169.284 67.082-263.292 98.679-188.007 63.19-395.512 102.58-590.115 6.716l-.221.448zM644.78 151.483c117.872.802 223.722 34.82 327.053 73.75C1075.15 264.158 1175.97 308 1283.71 328.402l.1-.492c-107.69-20.391-208.45-64.208-311.801-103.145-103.341-38.933-209.261-72.98-327.225-73.782l-.004.5zm638.93 176.919c53.9 10.204 109.67 9.171 166.78 4.476 28.56-2.348 57.45-5.611 86.6-8.844 29.16-3.233 58.58-6.436 88.21-8.663 118.5-8.907 240.18-2.202 360.78 80.598l.29-.412c-120.74-82.894-242.56-89.595-361.11-80.685-29.63 2.228-59.06 5.432-88.22 8.665-29.16 3.233-58.04 6.496-86.59 8.842-57.09 4.694-112.82 5.724-166.64-4.469l-.1.492zm-1690.56-18.128c197.883 100.999 406.814 64.074 595.826.96 94.503-31.557 184.054-69.671 264.748-100.372 80.709-30.707 152.552-53.995 211.693-55.942l-.016-.499c-59.235 1.949-131.151 25.269-211.855 55.974-80.719 30.711-170.237 68.812-264.728 100.364-188.978 63.104-397.743 99.974-595.441-.93l-.227.445zM665.417 154.92c119.706-3.894 225.156 24.512 327.249 59.887 102.084 35.372 200.834 77.723 307.084 101.676l.11-.488c-106.21-23.945-204.9-66.273-307.03-101.66-102.114-35.383-207.632-63.812-327.429-59.914l.016.499zm634.333 161.563c53.15 11.982 108.8 12.668 165.75 9.291 28.48-1.689 57.3-4.394 86.29-7.212 28.99-2.817 58.16-5.748 87.38-7.889 116.84-8.564 234.23-4.491 342.79 69.941l.28-.412c-108.71-74.532-226.24-78.594-343.11-70.028-29.22 2.142-58.4 5.073-87.39 7.891-28.99 2.818-57.8 5.522-86.27 7.21-56.94 3.376-112.53 2.687-165.61-9.28l-.11.488zm-1694.914-3.46c200.976 105.927 411.225 71.468 601.271 8.438 95.022-31.514 185.014-70.179 266.27-102.016 81.268-31.843 153.787-56.851 213.906-61.087l-.035-.499c-60.206 4.243-132.792 29.281-214.054 61.12-81.275 31.845-171.239 70.498-266.244 102.007-190.006 63.017-400.089 97.425-600.881-8.406l-.233.443zM686.283 158.358c121.427-8.591 226.476 14.202 327.357 46.024 50.45 15.912 99.85 34.079 149.74 51.709 49.88 17.629 100.25 34.719 152.63 48.473l.13-.484c-52.36-13.748-102.72-30.833-152.6-48.461-49.88-17.627-99.29-35.799-149.75-51.714-100.912-31.831-206.029-54.643-327.542-46.046l.035.499zm629.727 146.206c52.41 13.759 107.94 16.165 164.77 14.109 56.82-2.055 114.97-8.574 172.57-12.669 115.22-8.193 228.3-6.694 324.71 59.485l.28-.413c-96.56-66.284-209.8-67.764-325.03-59.571-57.63 4.097-115.74 10.613-172.55 12.669-56.8 2.055-112.28-.352-164.62-14.094l-.13.484zm-1699.489 11.207c204.184 110.97 415.694 79.034 606.718 16.089 95.51-31.472 185.917-70.702 267.726-103.704 81.821-33.006 155.03-59.777 216.183-66.362l-.053-.497c-61.233 6.593-134.505 33.392-216.317 66.395-81.825 33.008-172.206 72.228-267.696 103.693-190.977 62.929-402.32 94.818-606.322-16.053l-.239.439zM707.149 161.794c246.54-26.577 418.571 68.727 625.131 130.621l.14-.479c-206.44-61.861-378.651-157.23-625.325-130.639l.054.497zm625.131 130.621c103.3 30.955 221.62 16.394 335.16 8.604 113.57-7.792 222.35-8.811 306.73 49.115l.28-.412c-84.54-58.037-193.49-56.993-307.04-49.202-113.59 7.794-231.8 22.338-334.99-8.584l-.14.479zM-371.792 318.52c207.276 115.898 420.104 86.484 612.134 23.653 96.013-31.415 186.841-71.19 269.179-105.338 82.348-34.153 156.189-62.672 218.263-71.604l-.071-.495c-62.146 8.943-136.046 37.489-218.384 71.637-82.349 34.153-173.153 73.917-269.143 105.325-191.977 62.814-404.638 92.183-611.734-23.615l-.244.437zM727.784 165.231c249.971-35.97 416.976 46.044 620.526 115.264l.16-.473c-203.49-69.202-370.638-151.277-620.757-115.286l.071.495zm620.526 115.264c101.82 34.625 221.11 23.387 333 15.941 55.95-3.725 110.05-6.502 159.21-2.135 49.16 4.367 93.36 15.875 129.52 40.707l.28-.412c-36.26-24.899-80.55-36.422-129.76-40.793-49.2-4.371-103.34-1.59-159.29 2.134-111.92 7.449-231.1 18.67-332.8-15.915l-.16.473zm-1708.416 40.773c210.484 120.941 424.63 93.993 617.665 31.218 96.516-31.387 187.767-71.734 270.646-107.036 82.889-35.306 157.392-65.559 220.444-76.783l-.088-.492c-63.117 11.235-137.673 41.513-220.552 76.815-82.889 35.305-174.115 75.642-270.605 107.02-192.976 62.756-406.955 89.664-617.261-31.175l-.249.433zM748.649 168.667c253.631-45.134 415.381 23.591 616.161 99.679l.17-.468c-200.76-76.084-362.63-144.864-616.419-99.703l.088.492zm616.161 99.679c100.44 38.066 220.77 30.151 330.99 23.105 55.13-3.524 107.72-6.831 154.07-4.075 46.35 2.756 86.42 11.576 116.5 32.277l.29-.411c-30.2-20.779-70.37-29.607-116.76-32.365-46.39-2.758-99.01.552-154.13 4.075-110.25 7.048-230.46 14.947-330.79-23.074l-.17.468zm-1713.23 55.671c213.577 125.869 429.04 101.558 623.11 38.954 97.033-31.302 188.728-72.179 272.168-108.649 83.449-36.474 158.627-68.532 222.655-82.219l-.104-.489c-64.088 13.7-139.315 45.782-222.752 82.25-83.445 36.473-175.116 77.339-272.12 108.631-194.005 62.583-409.302 86.857-622.703-38.909l-.254.431zM769.513 172.103c257.307-54.069 413.557 1.139 611.327 84.323l.19-.461c-197.8-83.198-354.17-138.452-611.62-84.351l.103.489zm611.327 84.323c98.96 41.621 220.26 37.087 328.83 30.442 54.29-3.324 105.4-7.176 148.97-6.059 43.57 1.117 79.55 7.205 103.61 23.719l.28-.412c-24.19-16.602-60.29-22.689-103.88-23.807-43.59-1.117-94.73 2.737-149.01 6.06-108.59 6.646-229.77 11.165-328.61-30.404l-.19.461zm-1717.574 70.34c216.785 130.911 433.566 109.065 628.642 46.518 97.535-31.273 189.653-72.724 273.634-110.347 83.99-37.627 159.829-71.419 224.835-87.398l-.119-.485c-65.059 15.991-140.944 49.805-224.92 87.427-83.986 37.625-176.078 79.064-273.583 110.327-195.004 62.525-411.619 84.337-628.23-46.47l-.259.428zm1127.11-151.227c130.499-31.735 233.484-37.059 328.194-23.171 94.7 13.889 181.14 46.993 278.53 92.137l.21-.454c-97.41-45.151-183.9-78.278-278.67-92.177-94.78-13.9-197.834-8.567-328.382 23.179l.118.486zm606.724 68.966c97.47 45.177 219.75 43.967 326.66 37.693 53.47-3.137 103.09-7.541 143.88-8.053 20.39-.256 38.56.461 53.89 2.794 15.34 2.332 27.81 6.278 36.82 12.463l.28-.412c-9.09-6.247-21.65-10.208-37.02-12.546-15.37-2.338-33.58-3.055-53.98-2.799-40.8.513-90.45 4.918-143.9 8.054-106.92 6.274-229.07 7.47-326.42-37.648l-.21.454zm-1722.147 85.01C-105.17 465.354 112.93 445.973 309.01 383.511c98.038-31.23 190.579-73.233 275.088-111.992 84.517-38.762 160.988-74.274 226.913-92.544l-.134-.482c-65.972 18.283-142.485 53.816-226.988 92.572-84.511 38.76-177.025 80.75-275.03 111.97-196.004 62.438-413.937 81.788-633.644-53.946l-.262.426zm1136.058-150.54c132.337-36.434 234.919-47.37 328.419-37.062 93.5 10.309 177.92 41.864 273.94 90.442l.22-.446c-96.04-48.592-180.53-80.175-274.1-90.493-93.58-10.317-196.236.633-328.612 37.077l.133.482zm602.359 53.38c96.09 48.618 219.4 50.731 324.66 44.83 26.31-1.475 51.51-3.452 74.86-5.33 23.36-1.877 44.89-3.654 63.88-4.732 18.98-1.078 35.42-1.455 48.62-.533 13.2.923 23.11 3.144 29.07 7.229l.28-.413c-6.08-4.166-16.1-6.391-29.32-7.315-13.22-.924-29.69-.545-48.68.533-19 1.078-40.53 2.856-63.89 4.733-23.35 1.877-48.54 3.854-74.85 5.329-105.25 5.901-228.44 3.775-324.41-44.777l-.22.446zm-1726.731 99.908c223.085 140.882 442.502 124.024 639.589 61.647 98.54-31.188 191.504-73.756 276.554-113.679 85.059-39.927 162.19-77.201 229.092-97.821l-.147-.477c-66.944 20.632-144.115 57.926-229.157 97.845-85.051 39.923-177.988 82.479-276.493 113.655-197.004 62.351-416.254 79.183-639.171-61.592l-.267.422zM831.874 182.411c134.061-41.133 236.246-57.739 328.506-51.01 92.26 6.728 174.62 36.791 269.02 89.032l.25-.437c-94.45-52.263-176.88-82.358-269.23-89.094-92.35-6.735-194.603 9.889-328.693 51.031l.147.478zm597.526 38.023c94.61 52.173 218.89 57.611 322.49 52.082 51.81-2.765 98.46-8.274 133.65-12.058 17.6-1.893 32.32-3.354 43.4-3.826 5.54-.237 10.16-.226 13.77.1 3.62.328 6.17.969 7.62 1.961l.28-.412c-1.56-1.071-4.23-1.719-7.85-2.047-3.64-.329-8.29-.339-13.84-.102-11.1.474-25.84 1.936-43.44 3.829-35.19 3.785-81.83 9.291-133.61 12.055-103.59 5.529-227.75.081-322.22-52.02l-.25.438zM-301.674 335.241c226.177 145.809 446.855 131.417 644.947 69.125 99.043-31.145 192.444-74.265 278.065-115.324 85.629-41.062 163.463-80.055 231.398-102.967l-.159-.474c-67.973 22.924-145.845 61.937-231.456 102.99-85.619 41.058-178.992 84.165-277.998 115.298-198.003 62.265-418.514 76.634-644.526-69.068l-.271.42zM852.737 186.075c135.785-45.832 237.573-68.05 328.623-64.901 91.05 3.15 171.4 31.663 264.31 87.338l.26-.429c-92.96-55.704-173.39-84.255-264.55-87.408-91.15-3.153-193 19.089-328.803 64.927l.16.473zm592.933 22.437c93.12 55.729 218.37 64.491 320.32 59.334 50.97-2.579 96.13-8.639 128.55-14.054 16.21-2.708 29.23-5.254 38.2-7.124 4.49-.935 7.96-1.701 10.31-2.233a290.872 290.872 0 003.35-.776l.18-.041.04-.01.01-.003-.05-.244c-.06-.243-.06-.242-.07-.242 0 .001 0 .002-.01.003l-.04.01a125.61 125.61 0 01-.85.201c-.6.141-1.5.349-2.67.614-2.35.532-5.82 1.297-10.3 2.231-8.97 1.869-21.98 4.414-38.18 7.121-32.4 5.413-77.54 11.47-128.5 14.048-101.92 5.156-227.05-3.614-320.03-59.264l-.26.429zM-302.814 328.37c93.303 56.391 185.237 91.238 274.883 107.057l.087-.492c-89.579-15.807-181.455-50.63-274.711-106.993l-.259.428zM-27.93 435.427c116.472 20.405 229.957 8.711 337.93-19.255l-.125-.484C201.951 443.641 88.54 455.324-27.844 434.935l-.086.492zM310 416.172c60.749-15.816 119.891-36.676 176.282-60.973l-.197-.459c-56.37 24.288-115.489 45.139-176.211 60.948l.126.484zm176.283-60.973c63.495-27.505 123.092-58.677 178.783-87.552l-.23-.444c-55.695 28.877-115.276 60.04-178.752 87.537l.199.459zm178.783-87.553c65.551-34.148 126.043-65.079 180.801-85.24l-.173-.469c-54.793 20.174-115.313 51.12-180.859 85.266l.231.443zm180.801-85.24c58.441-21.542 112.057-39.412 160.853-49.262l-.1-.49c-48.835 9.858-102.48 27.74-160.926 49.283l.173.469zm160.853-49.262c90.95-18.098 163.57-15.119 234.81 1.145l.12-.488c-71.32-16.279-144-19.259-235.03-1.147l.1.49zm234.81 1.144c61.86 14.203 122.8 39.173 189.25 74.459l.24-.441c-66.48-35.3-127.47-60.29-189.37-74.505l-.12.487zm189.25 74.456c1.61.919 3.27 1.781 4.93 2.64 1.67.86 3.32 1.717 4.92 2.631l.25-.434c-1.61-.92-3.28-1.782-4.94-2.641-1.66-.86-3.32-1.717-4.92-2.63l-.24.434zm9.86 5.274c68.58 36.926 152.05 47.469 232.05 48.844l.01-.5c-79.98-1.375-163.35-11.916-231.83-48.784l-.23.44zm232.05 48.844c70.04 1.261 137.26-5.673 187.69-12.836 25.21-3.582 46.23-7.22 61.3-9.921 7.54-1.35 13.58-2.465 17.93-3.221 2.17-.379 3.91-.666 5.2-.849.64-.091 1.17-.156 1.58-.192.42-.037.69-.043.84-.025l.06-.497c-.21-.025-.53-.013-.94.024-.43.037-.96.103-1.61.195-1.3.184-3.05.473-5.22.851-4.34.757-10.39 1.873-17.93 3.222-15.07 2.7-36.08 6.337-61.28 9.918-50.42 7.16-117.61 14.091-187.61 12.831l-.01.5zm-1976.643 58.637c93.983 52.948 185.684 90.086 275.1 107.969l.098-.491c-89.351-17.869-181.002-54.984-274.953-107.914l-.245.436zm275.1 107.968c115.555 23.156 228.811 14.672 337.243-10.772l-.114-.487c-108.381 25.432-221.563 33.907-337.03 10.769l-.099.49zm337.244-10.773c60.978-14.441 120.581-34.155 176.975-58.682l-.199-.459c-56.366 24.516-115.941 44.22-176.892 58.655l.116.486zm176.976-58.683c63.498-27.735 121.952-60.514 176.726-90.993l-.243-.437c-54.778 30.482-113.211 63.248-176.683 90.972l.2.458zm176.726-90.993c63.948-35.524 122.605-68.288 177.135-90.281l-.187-.464c-54.565 22.008-113.252 54.789-177.191 90.308l.243.437zm177.134-90.281c57.757-23.147 112.511-43.534 161.983-52.009l-.08-.492c-49.536 8.484-104.334 28.891-162.089 52.037l.186.464zm161.983-52.009c91.18-15.576 161.73-5.727 232.75 13.517l.13-.483c-71.07-19.257-141.7-29.118-232.96-13.526l.08.492zm232.75 13.517c61.86 16.724 124.42 42.385 192.25 74.695l.21-.451c-67.84-32.317-130.43-57.992-192.33-74.727l-.13.483zm192.25 74.696l5.16 2.406c1.72.802 3.44 1.605 5.15 2.407l.22-.453-5.16-2.407-5.16-2.406-.21.453zm10.31 4.812c70.19 33.486 153.43 38.984 234.11 38.067v-.5c-80.67.917-163.82-4.585-233.89-38.019l-.22.452zm234.11 38.067c69.12-.802 135.88-8.538 186.8-15.901 25.45-3.682 46.95-7.27 62.8-9.852 7.92-1.291 14.43-2.33 19.31-3.003 2.45-.337 4.48-.581 6.08-.721 1.61-.139 2.76-.171 3.45-.088l.06-.497c-.75-.089-1.95-.052-3.55.087-1.62.141-3.66.387-6.1.724-4.9.674-11.41 1.714-19.33 3.004-15.85 2.582-37.34 6.17-62.79 9.851-50.91 7.361-117.65 15.094-186.73 15.896v.5zm-1975.722 56.807c94.434 49.277 185.902 88.707 275.317 108.652l.109-.488c-89.353-19.932-180.777-59.339-275.195-108.607l-.231.443zm275.317 108.652c114.636 25.677 227.663 20.632 336.555-2.062l-.102-.49C197.84 443.41 84.886 448.449-29.666 422.791l-.11.488zm336.555-2.062c60.98-12.837 121.273-31.635 177.9-56.622l-.202-.458c-56.592 24.972-116.852 43.76-177.801 56.59l.103.49zm177.9-56.623c63.273-27.966 120.812-62.35 174.44-94.434l-.256-.429c-53.632 32.086-111.146 66.454-174.386 94.406l.202.457zm174.44-94.434c62.115-37.129 119.397-71.496 173.468-95.093l-.2-.458c-54.106 23.613-111.418 57.998-173.524 95.122l.256.429zm173.468-95.093c57.072-24.753 112.735-47.656 163.118-54.984l-.072-.494c-50.459 7.339-106.182 30.271-163.245 55.02l.199.458zm163.118-54.984c91.394-13.284 159.874 3.662 230.454 25.888l.15-.477c-70.6-22.234-139.17-39.206-230.676-25.905l.072.494zm230.454 25.888c61.87 19.476 126.26 45.369 195.02 74.932l.19-.46c-68.76-29.564-133.17-55.465-195.06-74.949l-.15.477zm195.02 74.934c3.41 1.365 6.89 2.983 10.55 4.356l.17-.468c-3.67-1.376-7.07-2.967-10.53-4.352l-.19.464zm10.54 4.353c71.79 30.275 154.81 30.729 236.17 27.291l-.02-.5c-81.36 3.438-164.28 2.975-235.96-27.252l-.19.461zm236.17 27.291c68.31-2.865 134.62-11.404 185.96-18.938 12.83-1.884 24.73-3.705 35.5-5.359 10.76-1.654 20.38-3.14 28.67-4.356 8.29-1.216 15.23-2.159 20.63-2.728 5.41-.569 9.24-.758 11.33-.476l.07-.496c-2.16-.291-6.05-.093-11.45.475-5.41.569-12.37 1.515-20.65 2.73-8.29 1.216-17.92 2.703-28.68 4.357a5106.243 5106.243 0 01-35.5 5.358c-51.33 7.534-117.61 16.069-185.9 18.933l.02.5zm-1974.121 55.206c94.884 45.835 186.351 87.327 275.304 109.564l.121-.485c-88.898-22.224-180.323-63.694-275.208-109.529l-.217.45zm275.304 109.564c113.49 28.428 226.517 26.592 335.867 6.42l-.09-.492c-109.296 20.162-222.249 21.994-335.656-6.413l-.121.485zm335.868 6.42c61.209-11.462 121.963-28.884 178.595-54.332l-.205-.457c-56.588 25.429-117.304 42.841-178.482 54.297l.092.492zm178.594-54.332c63.047-28.198 119.671-64.188 172.154-97.876l-.27-.421c-52.485 33.69-109.08 69.66-172.088 97.84l.204.457zm172.154-97.876c60.511-38.734 116.188-74.933 169.571-99.904l-.212-.453c-53.419 24.989-109.128 61.209-169.629 99.936l.27.421zm169.571-99.904c56.388-26.359 113.19-51.778 164.252-57.96l-.06-.496c-51.155 6.193-108.031 31.651-164.404 58.003l.212.453zm164.252-57.96c91.378-10.992 157.798 13.05 228.388 38.031l.17-.472c-70.59-24.979-137.11-49.063-228.617-38.055l.059.496zm228.388 38.031c61.88 21.999 127.88 48.58 197.78 75.167l.18-.467c-69.89-26.582-135.91-53.17-197.79-75.171l-.17.471zm197.78 75.166c3.43 1.373 7.14 2.532 10.78 3.898l.17-.469c-3.69-1.384-7.32-2.517-10.76-3.894l-.19.465zm10.78 3.898c73.4 27.064 156.19 22.244 238.23 16.516l-.03-.499c-82.06 5.73-164.75 10.535-238.03-16.486l-.17.469zm238.23 16.515c67.39-4.813 133.24-14.153 185.06-21.916 25.92-3.883 48.32-7.37 65.67-9.701 8.67-1.165 16.08-2.041 22.02-2.532 5.95-.492 10.42-.597 13.23-.228l.06-.496c-2.86-.376-7.38-.266-13.33.226s-13.37 1.369-22.05 2.535c-17.35 2.331-39.76 5.82-65.67 9.701-51.83 7.763-117.65 17.101-185.02 21.913l.03.498zm-1972.06 53.607c95.332 42.392 186.801 85.947 275.52 110.245l.133-.482c-88.673-24.286-180.096-67.818-275.45-110.22l-.203.457zm275.52 110.245c112.572 30.95 225.37 32.554 335.18 14.903l-.079-.494C193.499 443.18 80.775 441.575-31.717 410.647l-.133.482zm335.181 14.902c61.439-10.086 122.425-26.362 179.288-52.041l-.205-.456c-56.815 25.657-117.757 41.923-179.164 52.004l.081.493zm179.288-52.041c63.05-28.199 118.761-66.255 170.097-101.317l-.282-.413c-51.341 35.066-107.016 73.096-170.02 101.274l.205.456zm170.097-101.317c58.678-40.339 112.751-78.141 165.904-104.945l-.225-.447c-53.191 26.823-107.295 64.648-165.962 104.98l.283.412zM818.62 167.727c55.701-28.192 113.644-55.898 165.615-60.934l-.048-.498c-52.081 5.047-110.108 32.802-165.793 60.986l.226.446zm165.614-60.934c91.606-8.702 155.946 22.436 226.096 50.402l.18-.465c-70.11-27.953-134.58-59.15-226.323-50.435l.047.498zm226.096 50.401c61.88 24.751 129.5 51.796 200.78 75.404l.16-.474c-71.27-23.603-138.87-50.643-200.76-75.394l-.18.464zm200.79 75.406c1.83.572 3.66 1.145 5.5 1.718 1.83.573 3.66 1.146 5.5 1.719l.15-.477-5.51-1.719c-1.83-.573-3.66-1.146-5.5-1.719l-.14.478zm11 3.437c75 23.853 157.57 13.988 240.29 5.74l-.05-.498c-82.76 8.252-165.21 18.097-240.09-5.719l-.15.477zm240.29 5.74c66.47-6.647 131.79-16.789 184.08-24.81 26.14-4.011 49.02-7.491 67.15-9.739 18.15-2.25 31.51-3.261 38.63-2.349l.07-.496c-7.2-.922-20.63.101-38.76 2.349-18.14 2.249-41.03 5.73-67.17 9.741-52.28 8.021-117.6 18.161-184.05 24.806l.05.498zm-1970.919 52.234c95.776 38.95 187.027 84.34 275.737 111.158l.144-.479c-88.682-26.809-179.865-72.172-275.692-111.142l-.189.463zm275.737 111.158C78.882 438.87 191.45 443.683 301.72 428.783l-.067-.496c-110.21 14.892-222.705 10.08-334.28-23.597l-.145.479zm334.493 23.613c61.439-8.481 123.116-23.841 180.211-49.751l-.206-.455c-57.041 25.885-118.668 41.234-180.074 49.711l.069.495zm180.211-49.75c62.825-28.43 117.62-68.093 167.811-104.989l-.296-.403c-50.194 36.898-104.95 76.531-167.721 104.936l.206.456zm167.811-104.989c57.075-41.715 109.542-81.349 162.236-109.756l-.237-.44c-52.732 28.428-105.233 68.088-162.294 109.793l.295.403zM811.98 164.287c55.016-29.799 113.869-60.019 166.748-63.682l-.035-.498c-53.006 3.671-111.956 33.953-166.951 63.74l.238.44zm166.748-63.682c91.822-6.411 154.092 31.821 224.032 62.774l.2-.458c-69.87-30.924-132.28-69.237-224.267-62.814l.035.498zm224.032 62.774c61.88 27.274 131.34 54.78 203.55 75.639l.14-.48c-72.18-20.851-141.62-48.347-203.49-75.617l-.2.458zm203.54 75.637c3.68 1.149 7.35 2.067 11.25 2.984l.11-.486c-3.89-.917-7.55-1.832-11.21-2.975l-.15.477zm11.24 2.982c76.61 20.642 158.95 5.733 242.35-5.264l-.06-.496c-83.45 11.004-165.67 25.887-242.16 5.278l-.13.482zm242.35-5.264c65.44-8.48 130.25-19.367 182.96-27.588 26.35-4.111 49.68-7.555 68.56-9.699 18.88-2.145 33.28-2.986 41.78-1.902l.06-.496c-8.57-1.093-23.02-.243-41.9 1.901-18.88 2.146-42.22 5.591-68.58 9.702-52.72 8.222-117.51 19.107-182.94 27.586l.06.496zm-1969.537 50.405c48.236 17.758 95.098 38.495 140.967 58.406 45.866 19.909 90.74 38.993 134.986 53.435l.155-.476c-44.221-14.434-89.075-33.508-134.942-53.418-45.864-19.908-92.74-40.652-140.993-58.416l-.173.469zM-33.695 398.98c110.736 36.222 223.075 44.474 333.805 32.095l-.056-.497c-110.667 12.372-222.933 4.124-333.593-32.074l-.156.476zm333.806 32.095c61.669-7.106 123.807-21.091 180.906-47.461l-.21-.454c-57.036 26.341-119.119 40.316-180.753 47.418l.057.497zm180.905-47.46c62.828-28.661 116.48-69.93 165.754-108.431l-.308-.394c-49.278 38.503-102.886 79.737-165.654 108.37l.208.455zM646.77 275.184c55.241-43.319 106.333-84.557 158.569-114.567l-.249-.434c-52.275 30.033-103.401 71.299-158.629 114.608l.309.393zm158.569-114.567c27.274-15.699 55.854-31.735 84.317-44.161 28.464-12.428 56.794-21.238 83.566-22.496l-.024-.5c-26.858 1.263-55.252 10.099-83.742 22.537-28.491 12.439-57.093 28.488-84.366 44.186l.249.434zM973.221 93.96c91.819-4.122 152.239 41.432 221.969 75.144l.21-.45c-69.62-33.665-130.21-79.323-222.201-75.194l.022.5zm221.959 75.144c61.9 30.028 133.19 57.765 206.32 75.875l.12-.485c-73.09-18.1-144.35-45.824-206.22-75.84l-.22.45zm206.33 75.876c3.89.915 7.56 1.834 11.47 2.523l.09-.492c-3.89-.686-7.55-1.6-11.45-2.518l-.11.487zm11.46 2.521c78.21 17.202 160.33-2.523 244.41-16.039l-.08-.494c-84.14 13.527-166.13 33.22-244.22 16.045l-.11.488zm244.41-16.039c32.32-5.214 64.58-10.743 95.41-16.028 30.83-5.286 60.24-10.327 86.85-14.567 26.61-4.239 50.43-7.676 70.08-9.752 19.66-2.077 35.14-2.79 45.08-1.591l.06-.496c-10-1.207-25.53-.488-45.19 1.589-19.67 2.078-43.49 5.516-70.11 9.756-26.61 4.24-56.02 9.282-86.86 14.568-30.83 5.285-63.09 10.814-95.4 16.027l.08.494zm-1968.164 48.805c48.46 15.923 95.433 36.315 141.329 56.626 45.891 20.309 90.708 40.538 134.838 56.126l.167-.471c-44.108-15.58-88.904-35.8-134.803-56.112-45.895-20.311-92.889-40.712-141.375-56.644l-.156.475zm276.167 112.752C75.201 431.763 187.31 443.683 298.5 433.596l-.045-.497c-111.123 10.08-223.16-1.833-332.905-40.551l-.167.471zM298.5 433.597c61.9-5.502 124.499-18.57 181.83-45.17l-.211-.454c-57.263 26.569-119.801 39.627-181.663 45.125l.044.499zm181.829-45.17c62.603-28.892 115.339-71.768 163.467-111.872l-.32-.384c-48.131 40.106-100.821 82.941-163.356 111.802l.209.454zm163.467-111.872c53.638-44.696 103.126-87.766 154.674-119.609l-.263-.426c-51.586 31.868-101.108 74.968-154.731 119.651l.32.384zm154.673-119.609c26.93-16.5 55.567-33.624 84.287-46.766 28.72-13.143 57.505-22.294 84.729-22.866l-.01-.5c-27.323.574-56.179 9.756-84.927 22.911-28.75 13.156-57.41 30.294-84.34 46.795l.261.426zm169.017-69.632c46.014-1.03 83.554 11.673 118.284 29.221 17.37 8.776 34.03 18.762 50.69 28.849 16.66 10.086 33.33 20.275 50.7 29.446l.23-.442c-17.35-9.163-34.01-19.343-50.67-29.431-16.66-10.087-33.34-20.083-50.72-28.868-34.78-17.572-72.4-30.308-118.525-29.275l.011.5zm219.674 87.516c61.89 32.781 134.8 60.979 209.31 76.11l.1-.49c-74.46-15.12-147.32-43.3-209.18-76.062l-.23.442zm209.32 76.111c1.95.344 3.89.688 5.84 1.031l5.85 1.032.08-.493-5.84-1.031c-1.95-.344-3.9-.687-5.84-1.031l-.09.492zm11.69 2.063c39.91 6.996 80.34 4.357 121.38-2.062 41.03-6.417 82.71-16.62 125.09-24.752l-.1-.491c-42.42 8.139-84.05 18.332-125.07 24.749-41.01 6.415-81.38 9.046-121.22 2.063l-.08.493zm246.47-26.814c63.71-12.147 127.59-24.636 181.25-33.373 26.83-4.368 51.09-7.798 71.5-9.777 20.41-1.98 36.95-2.507 48.32-1.079l.06-.496c-11.43-1.436-28.01-.903-48.43 1.077-20.42 1.981-44.7 5.413-71.53 9.782-53.66 8.738-117.56 21.229-181.27 33.374l.1.492zm-1966.791 47.204c48.685 14.204 95.77 34.251 141.692 54.904 45.917 20.652 90.677 41.913 134.691 58.532l.177-.468c-43.995-16.612-88.733-37.862-134.663-58.52-45.926-20.655-93.037-40.714-141.757-54.928l-.14.48zM-35.768 386.83c108.9 41.264 220.779 56.624 332.429 49.288l-.033-.499C185.047 442.95 73.239 427.6-35.591 386.362l-.177.468zm332.429 49.288c61.9-4.127 125.189-16.048 182.524-42.879l-.212-.453c-57.26 26.796-120.483 38.709-182.345 42.833l.033.499zm182.523-42.879c62.376-29.122 114.197-73.376 161.41-115.314l-.332-.374c-47.214 41.939-98.986 86.147-161.289 115.235l.211.453zm161.409-115.314c52.037-46.073 99.688-91.202 151.006-124.42l-.272-.419c-51.358 33.243-99.05 78.409-151.065 124.464l.331.375zm151.006-124.42c26.584-17.187 55.335-34.883 84.34-48.482 29.007-13.6 58.25-23.096 85.819-23.897l-.015-.5c-27.666.804-56.981 10.33-86.016 23.944-29.037 13.615-57.812 31.326-84.4 48.516l.272.419zm170.159-72.379c46.002-1.373 83.082 13.672 117.322 34.026 17.12 10.179 33.53 21.682 49.99 33.124 16.46 11.441 32.97 22.819 50.29 32.737l.24-.433c-17.29-9.906-33.78-21.273-50.24-32.714-16.46-11.44-32.88-22.954-50.02-33.144-34.29-20.381-71.47-35.473-117.597-34.096l.015.5zm217.602 99.888c61.9 35.306 136.64 63.964 212.08 76.345l.08-.494c-75.37-12.37-150.06-41.006-211.92-76.286l-.24.435zm212.08 76.344c3.9.689 8.04 1.148 11.93 1.606l.06-.496c-3.9-.459-8.02-.916-11.91-1.602l-.08.492zm11.92 1.606c40.73 5.391 81.49.687 122.76-7.709 20.63-4.198 41.39-9.32 62.34-14.566 20.94-5.246 42.06-10.616 63.43-15.313l-.11-.489c-21.37 4.699-42.5 10.072-63.44 15.317-20.95 5.246-41.7 10.366-62.32 14.561-41.24 8.391-81.95 13.084-122.59 7.703l-.07.496zm248.53-37.589c62.8-13.864 126.22-27.155 180.36-36.178 54.15-9.025 98.98-13.773 124.61-10.569l.06-.496c-25.71-3.214-70.61 1.549-124.75 10.572-54.15 9.025-117.59 22.318-180.39 36.183l.11.488zm-1965.179 45.146c48.91 12.484 96.049 32.129 141.94 53.125 45.884 20.993 90.533 43.345 134.43 61.223l.188-.463c-43.884-17.873-88.503-40.211-134.41-61.215-45.899-20.999-93.071-40.659-142.024-53.154l-.124.484zm276.37 114.348c107.98 43.786 219.631 62.584 331.741 57.77l-.022-.499c-112.038 4.811-223.617-13.975-331.532-57.734l-.187.463zm331.741 57.77c62.129-2.751 125.88-13.296 183.448-40.817l-.216-.451C420.569 424.852 356.891 435.39 294.8 438.14l.022.499zm183.446-40.817c62.38-29.353 113.056-75.214 159.123-118.757l-.344-.363c-46.067 43.544-96.692 89.352-158.992 118.668l.213.452zm159.123-118.757c50.202-47.678 96.479-94.41 147.338-129.23l-.283-.413c-50.901 34.849-97.216 81.621-147.399 129.28l.344.363zm147.338-129.23c26.242-17.99 55.05-37.175 84.311-51.69 29.264-14.516 58.958-24.351 86.975-23.665l.012-.5c-28.135-.689-57.915 9.186-87.209 23.717-29.296 14.533-58.13 33.735-84.372 51.726l.283.412zM956.015 74.48c46.115 1.144 82.735 18.592 116.435 41.038 16.85 11.224 32.97 23.694 49.18 36 16.2 12.304 32.5 24.443 49.7 34.992l.26-.426c-17.18-10.535-33.46-22.66-49.66-34.964-16.2-12.302-32.33-24.783-49.2-36.018-33.74-22.473-70.46-39.974-116.703-41.122l-.012.5zm215.315 112.03c61.91 38.06 138.49 66.949 214.85 76.579l.06-.496c-76.28-9.62-152.8-38.483-214.65-76.509l-.26.426zm214.85 76.58c4.12.458 8.03.917 12.16 1.147l.03-.5c-4.12-.228-8.01-.686-12.13-1.144l-.06.497zm12.15 1.146c41.53 3.785 82.64-2.926 124.13-13.27 20.75-5.172 41.6-11.254 62.64-17.387 21.04-6.135 42.28-12.321 63.82-17.705l-.12-.485c-21.55 5.387-42.8 11.576-63.84 17.709-21.04 6.135-41.88 12.214-62.62 17.383-41.47 10.339-82.52 17.035-123.96 13.257l-.05.498zm250.59-48.362c61.88-15.583 124.84-29.676 179.44-38.985 54.6-9.31 100.81-13.83 129.19-10.282l.06-.497c-28.46-3.557-74.73.976-129.34 10.286-54.61 9.312-117.59 23.408-179.47 38.993l.12.485zm-1963.347 43.774c49.134 10.765 96.385 30.064 142.303 51.403 45.906 21.334 90.507 44.721 134.283 63.628l.198-.459c-43.775-18.907-88.328-42.272-134.27-63.622-45.929-21.344-93.219-40.662-142.407-51.439l-.107.489zm276.586 115.031c107.063 46.307 218.484 68.545 331.053 66.252l-.011-.5C180.707 442.722 69.356 420.5-37.643 374.22l-.199.459zm331.053 66.252c62.358-1.375 126.571-10.774 184.142-38.526l-.217-.451c-57.482 27.709-121.615 37.103-183.936 38.477l.011.5zm184.141-38.526c62.153-29.584 112.143-77.052 156.835-122.2l-.355-.352C589.141 325 539.205 372.411 477.138 401.954l.215.451zm156.835-122.2c48.598-49.054 93.27-97.617 143.67-134.04l-.293-.406c-50.443 36.455-95.155 85.061-143.732 134.094l.355.352zm143.671-134.041c25.898-18.792 54.762-39.064 84.28-54.294 29.521-15.232 59.67-25.408 88.14-24.036l.024-.5c-28.598-1.378-58.84 8.843-88.393 24.091-29.555 15.25-58.446 35.542-84.345 54.335l.294.404zm172.42-78.33c46.11 2.173 82.221 21.965 115.401 46.874 16.6 12.456 32.45 26.185 48.47 39.631 16.01 13.443 32.18 26.601 49.38 37.896l.27-.418c-17.17-11.278-33.32-24.419-49.33-37.861-16.01-13.439-31.88-27.182-48.49-39.648-33.22-24.937-69.424-44.793-115.677-46.974l-.024.5zm213.251 124.401c61.91 40.814 140.1 69.935 217.84 76.814l.05-.498c-77.65-6.872-155.77-35.962-217.62-76.734l-.27.418zm217.84 76.813c4.13.46 8.27.689 12.4.689v-.5c-4.11 0-8.23-.228-12.35-.686l-.05.497zm12.39.689c42.33 2.065 83.78-6.596 125.51-18.831 20.86-6.117 41.79-13.13 62.93-20.145 21.14-7.015 42.5-14.032 64.21-20.16l-.14-.481c-21.72 6.132-43.08 13.152-64.23 20.167-21.14 7.015-42.06 14.025-62.92 20.139-41.7 12.23-83.09 20.872-125.34 18.812l-.02.499zm252.65-59.136c60.95-17.187 123.46-32.081 178.54-41.705 55.09-9.624 102.73-13.972 133.97-10.081l.06-.497c-31.32-3.9-79.02.46-134.12 10.086-55.1 9.627-117.62 24.526-178.59 41.715l.14.482zm-1961.974 42.173c49.473 8.932 96.835 27.829 142.751 49.539 22.958 10.856 45.551 22.413 67.866 33.779 22.313 11.365 44.348 22.54 66.183 32.626l.21-.454c-21.825-10.081-43.852-21.252-66.166-32.618-22.313-11.365-44.913-22.926-67.879-33.785-45.931-21.718-93.339-40.635-142.876-49.579l-.089.492zm276.8 115.944c106.145 48.828 217.337 74.505 330.365 74.963l.002-.5c-112.952-.458-224.074-26.117-330.158-74.917l-.209.454zm330.365 74.963c62.36.229 127.034-8.252 185.065-36.234l-.217-.451c-57.938 27.937-122.527 36.414-184.846 36.185l-.002.5zm185.065-36.234c61.927-29.815 111.001-78.661 154.777-125.643l-.366-.341c-43.774 46.98-92.793 95.763-154.628 125.533l.217.451zm154.777-125.643c46.995-50.431 90.062-100.826 139.775-139.082l-.305-.396c-49.756 38.289-92.863 88.731-139.836 139.137l.366.341zm139.774-139.081c25.554-19.594 54.533-40.896 84.336-56.814 29.807-15.919 60.411-26.436 89.221-24.493l.033-.498c-28.946-1.953-59.65 8.614-89.489 24.55-29.843 15.938-58.849 37.263-84.405 56.858l.304.397zm173.556-81.307c46.219 3.204 81.867 25.338 114.507 52.71 16.33 13.688 31.89 28.677 47.65 43.263 15.76 14.583 31.71 28.758 48.8 40.8l.29-.409c-17.06-12.021-33-26.178-48.75-40.758-15.75-14.576-31.33-29.58-47.67-43.279-32.67-27.4-68.419-49.611-114.792-52.825l-.035.498zM1155.73 198.19c61.92 43.569 141.95 72.92 220.61 77.048l.03-.499c-78.57-4.123-158.51-33.44-220.35-76.958l-.29.409zm220.61 77.048c2.07.115 4.19.172 6.31.23 2.12.057 4.24.114 6.29.228l.03-.499c-2.06-.115-4.19-.172-6.31-.229-2.12-.058-4.23-.115-6.29-.229l-.03.499zm12.62.459c43.13.459 84.93-10.208 126.88-24.392 20.97-7.092 41.99-15.064 63.23-22.966 21.24-7.903 42.71-15.736 64.59-22.552l-.15-.477c-21.89 6.82-43.37 14.657-64.61 22.56-21.25 7.904-42.26 15.873-63.22 22.961-41.93 14.178-83.67 24.824-126.72 24.366v.5zm254.7-69.91c60.04-18.79 122.03-34.486 177.54-44.395 55.51-9.911 104.53-14.03 138.64-9.681l.06-.496c-34.19-4.359-83.26-.228-138.79 9.685-55.54 9.914-117.54 25.615-177.6 44.41l.15.477zM-316.701 245.9c49.697 7.214 97.17 25.765 143.113 47.819 22.972 11.026 45.557 22.927 67.846 34.723 22.287 11.794 44.28 23.484 66.057 34.086l.219-.45C-61.235 351.481-83.22 339.796-105.508 328c-22.289-11.796-44.882-23.701-67.863-34.732-45.962-22.063-93.488-40.638-143.258-47.862l-.072.494zm277.016 116.628c105.226 51.349 216.189 80.465 329.676 83.445l.013-.5c-113.409-2.978-224.302-32.073-329.47-83.394l-.22.449zm329.676 83.445c62.589 1.605 127.724-5.501 185.76-33.943l-.22-.449c-57.934 28.392-122.978 35.496-185.527 33.892l-.013.5zM475.75 412.03c61.931-30.046 109.86-80.5 152.49-129.315l-.377-.329c-42.628 48.813-90.5 99.196-152.331 129.194l.218.45zm152.49-129.315c45.391-51.808 86.624-104.033 136.106-143.892l-.313-.389c-49.527 39.894-90.803 92.172-136.169 143.952l.376.329zm136.106-143.892c25.325-20.396 54.36-42.786 84.392-59.39 30.036-16.605 61.037-27.406 90.3-24.663l.046-.498c-29.41-2.757-60.518 8.1-90.588 24.724-30.073 16.626-59.137 39.04-84.463 59.438l.313.389zM939.038 54.77c46.214 4.232 81.402 28.766 113.562 58.632 16.08 14.934 31.39 31.19 46.95 46.905 15.55 15.711 31.35 30.876 48.38 43.607l.3-.4c-17-12.708-32.78-27.851-48.33-43.559-15.54-15.703-30.87-31.976-46.96-46.92-32.19-29.892-67.478-54.516-113.856-58.763l-.046.498zm208.892 149.145c61.92 46.093 143.79 75.905 223.38 77.281l.01-.5c-79.48-1.374-161.25-31.148-223.09-77.182l-.3.401zm223.38 77.281h12.84v-.5h-12.84v.5zm12.84 0c43.93-1.147 86.14-13.764 128.32-29.895 21.09-8.066 42.18-17.013 63.47-25.846 21.3-8.834 42.81-17.554 64.75-25.172l-.16-.472c-21.96 7.623-43.48 16.348-64.78 25.182-21.3 8.835-42.38 17.778-63.46 25.841-42.16 16.125-84.3 28.717-128.15 29.862l.01.5zm256.54-80.912c59.23-20.393 120.76-36.891 176.72-47.115 55.97-10.225 106.37-14.173 143.34-9.48l.07-.496c-37.06-4.703-87.51-.744-143.5 9.484-55.99 10.23-117.54 26.734-176.79 47.134l.16.473zm-1958.528 38.742c49.922 5.496 97.506 23.644 143.476 46.012 22.984 11.184 45.562 23.421 67.825 35.656 22.262 12.235 44.21 24.469 65.93 35.644l.229-.445c-21.712-11.17-43.653-23.4-65.918-35.637-22.264-12.236-44.851-24.478-67.848-35.667-45.992-22.379-93.635-40.555-143.64-46.06l-.054.497zm277.231 117.312c104.309 53.641 215.041 86.195 328.988 91.926l.025-.499c-113.867-5.727-224.53-38.259-328.784-91.872l-.229.445zm328.989 91.926c62.818 2.981 128.414-2.978 186.682-31.651l-.221-.449c-58.161 28.621-123.66 34.579-186.438 31.601l-.023.499zm186.681-31.651c61.705-30.277 108.947-82.338 150.431-132.758l-.386-.318c-41.482 50.417-88.665 102.402-150.265 132.627l.22.449zm150.431-132.758c43.788-53.184 83.416-107.241 132.44-148.703l-.323-.381c-49.069 41.499-88.741 95.613-132.503 148.766l.386.318zm132.44-148.703c24.98-21.197 54.13-44.675 84.447-61.994 30.322-17.322 61.778-28.463 91.38-25.035l.057-.496c-29.758-3.447-61.329 7.756-91.685 25.097-30.36 17.343-59.539 40.847-84.522 62.047l.323.381zm175.827-87.029c46.324 5.261 80.999 32.138 112.609 64.468 15.81 16.167 30.84 33.682 46.19 50.538 15.34 16.85 31 33.033 48.03 46.51l.31-.392c-17-13.451-32.63-29.609-47.97-46.455-15.33-16.84-30.38-34.375-46.2-50.55-31.64-32.355-66.414-59.335-112.912-64.615l-.057.496zM1140.59 209.64c61.93 48.848 145.41 78.661 226.37 77.515l-.01-.5c-80.84 1.145-164.21-28.628-226.05-77.408l-.31.393zm226.37 77.515c4.36 0 8.72-.23 13.07-.459l-.02-.499c-4.36.229-8.71.458-13.05.458v.5zm13.08-.459c44.73-2.753 87.28-17.319 129.68-35.37 42.43-18.058 84.68-39.587 128.91-56.316l-.17-.468c-44.24 16.731-86.56 38.287-128.93 56.324-42.39 18.044-84.88 32.583-129.53 35.331l.04.499zm258.59-91.686c116.65-43.767 244.26-69.189 323.96-59.113l.06-.496c-79.82-10.091-207.52 15.364-324.19 59.141l.17.468zm-1957.606 37.142c50.147 3.778 97.842 21.524 143.81 44.234 45.978 22.716 90.185 50.374 133.408 73.99l.24-.438c-43.182-23.594-87.442-51.281-133.426-74-45.994-22.724-93.756-40.5-143.994-44.285l-.038.499zm277.218 118.225c103.39 56.162 213.894 92.155 328.3 100.637l.036-.498c-114.324-8.477-224.76-44.445-328.097-100.579l-.239.44zm328.301 100.637c62.818 4.356 129.105-.455 187.375-29.36l-.222-.448c-58.157 28.848-124.342 33.662-187.119 29.309l-.034.499zm187.375-29.36c61.478-30.507 107.804-83.946 148.143-136.201l-.395-.305c-40.336 52.249-86.603 105.606-147.97 136.058l.222.448zm148.143-136.201c42.184-54.561 80.208-110.449 128.773-153.743l-.333-.373c-48.611 43.335-86.678 99.284-128.835 153.81l.395.306zM750.834 131.71c24.635-21.998 53.842-46.506 84.416-64.512 30.579-18.009 62.492-29.492 92.548-25.492l.066-.496c-30.221-4.021-62.253 7.528-92.867 25.557-30.619 18.032-59.856 42.568-84.496 64.57l.333.373zm176.963-90.004c46.319 6.29 80.533 35.566 111.633 70.39 15.55 17.414 30.31 36.195 45.43 54.18 15.1 17.978 30.56 35.152 47.48 49.318l.32-.384c-16.89-14.137-32.32-31.283-47.42-49.256-15.1-17.967-29.88-36.771-45.44-54.191-31.12-34.845-65.433-64.238-111.936-70.553l-.067.496zm204.543 173.888c61.92 51.603 147.24 81.647 229.13 77.748l-.03-.499c-81.75 3.893-166.95-26.107-228.78-77.633l-.32.384zm229.13 77.748c2.18-.115 4.42-.287 6.65-.459 2.24-.172 4.47-.343 6.64-.458l-.02-.499c-2.19.115-4.42.287-6.66.459-2.23.172-4.46.343-6.64.458l.03.499zm13.3-.918c45.54-4.358 88.43-20.873 131.07-40.844 42.65-19.977 85.02-43.397 129.59-61.614l-.19-.463c-44.58 18.221-87.01 41.668-129.62 61.624-42.62 19.964-85.44 36.45-130.89 40.8l.04.497zm260.66-102.458c115.03-46.973 242.19-72.395 327.62-61.632l.06-.496c-85.55-10.779-212.8 14.676-327.87 61.665l.19.463zm-1955.543 35.311c50.371 1.946 98.12 19.346 144.086 42.428 45.975 23.087 90.127 51.834 133.348 76.481l.248-.434c-43.184-24.625-87.384-53.401-133.371-76.493-45.996-23.097-93.819-40.532-144.291-42.481l-.02.499zm277.434 118.909c102.472 58.683 212.746 98.115 327.611 109.119l.048-.497C170.198 441.811 59.992 402.407-42.431 343.752l-.248.434zm327.612 109.12c63.047 5.731 129.796 2.296 188.07-27.069l-.225-.446c-58.153 29.304-124.793 32.744-187.8 27.017l-.045.498zm188.07-27.068c61.481-30.739 106.89-85.786 146.083-139.645l-.404-.294c-39.19 53.854-84.539 108.811-145.903 139.491l.224.448zm146.083-139.645c40.581-55.937 76.999-113.657 125.106-158.553l-.341-.366c-48.153 44.94-84.617 102.726-125.169 158.625l.404.294zm125.106-158.554c24.291-22.8 53.612-48.395 84.472-67.116 30.865-18.725 63.233-30.549 93.628-25.864l.076-.494c-30.569-4.712-63.062 7.184-93.963 25.93-30.906 18.75-60.258 44.374-84.555 67.18l.342.364zm178.1-92.98c46.428 7.204 80.128 38.823 110.688 76.112 15.28 18.648 29.76 38.686 44.66 57.798 14.9 19.103 30.21 37.266 47.13 52.121l.33-.376c-16.89-14.823-32.17-32.956-47.06-52.053-14.89-19.089-29.39-39.156-44.68-57.807-30.57-37.307-64.369-69.055-110.992-76.29l-.076.495zM1124.77 221.09c61.93 54.357 149.09 84.633 231.89 77.981l-.04-.498c-82.66 6.64-169.69-23.587-231.52-77.859l-.33.376zm231.9 77.98c2.29-.229 4.53-.458 6.76-.687 2.23-.229 4.47-.458 6.76-.688l-.05-.497c-2.29.229-4.53.458-6.76.688-2.24.229-4.47.458-6.76.687l.05.497zm13.53-1.375c46.34-6.079 89.63-24.544 132.52-46.405 42.91-21.868 85.4-47.121 130.2-66.827l-.2-.458c-44.82 19.712-87.36 44.993-130.23 66.84-42.88 21.854-86.1 40.286-132.36 46.354l.07.496zm262.72-113.232c113.42-49.949 240.34-75.601 331.5-64.15l.06-.496c-91.27-11.466-218.29 14.217-331.77 64.188l.21.458zm-1954.17 33.939c50.71.229 98.57 17.227 144.534 40.651 45.971 23.429 90.011 53.265 133.115 79.172l.258-.429c-43.071-25.887-87.155-55.75-133.146-79.188-45.997-23.442-93.938-40.476-144.759-40.706l-.002.5zM-43.6 338.225c101.553 60.974 211.368 104.074 326.922 117.601l.058-.497C167.912 441.813 58.164 398.743-43.343 337.796l-.258.429zm326.923 117.601c63.277 7.336 130.487 4.819 188.994-25.006l-.227-.445c-58.38 29.76-125.475 32.285-188.71 24.954l-.057.497zm188.993-25.005c61.254-30.97 105.976-87.395 143.795-143.088l-.413-.281c-37.814 55.685-82.475 112.015-143.608 142.922l.226.447zm143.795-143.088c38.976-57.314 73.791-116.865 121.209-163.364l-.35-.357c-47.465 46.545-82.324 106.166-121.272 163.44l.413.281zM737.32 124.369c24.062-23.488 53.44-50.17 84.529-69.607 31.094-19.44 63.859-31.605 94.708-26.12l.087-.493c-31.032-5.517-63.93 6.726-95.061 26.189-31.135 19.466-60.545 46.18-84.612 69.673l.349.358zm179.237-95.728c46.539 8.233 79.778 42.251 109.793 82.035 15.02 19.896 29.2 41.198 43.85 61.44 14.64 20.232 29.73 39.384 46.54 54.928l.34-.367c-16.77-15.509-31.84-34.629-46.48-54.854-14.63-20.214-28.84-41.553-43.85-61.448-30.026-39.797-63.365-73.958-110.106-82.226l-.087.492zm200.183 198.403c61.71 57.113 150.7 87.389 234.89 78.214l-.06-.497c-84.04 9.159-172.89-21.067-234.49-78.084l-.34.367zm234.89 78.214c4.59-.459 9.18-1.147 13.76-1.835l-.07-.494c-4.59.688-9.17 1.374-13.74 1.832l.05.497zm13.76-1.835c47.14-7.685 90.83-28.041 133.99-51.793 43.16-23.759 85.76-50.902 130.79-72.212l-.21-.452c-45.04 21.317-87.7 48.489-130.82 72.226-43.14 23.745-86.77 44.067-133.83 51.737l.08.494zm264.78-124.005c111.82-52.696 238.51-78.577 335.17-66.438l.06-.497c-96.78-12.153-223.57 13.759-335.44 66.483l.21.452zm-1952.558 32.109c50.935-1.488 98.907 15.107 144.898 38.846 45.997 23.742 89.98 54.61 132.968 81.661l.266-.423c-42.958-27.033-86.983-57.928-133.005-81.683-46.028-23.757-94.087-40.392-145.141-38.901l.014.5zm277.866 120.507C56.114 395.53 165.699 442.068 281.712 458.346l.07-.495c-115.926-16.265-225.445-62.772-326.037-126.24l-.267.423zm326.235 126.312c63.278 8.712 131.178 7.342 189.688-22.714l-.229-.444c-58.377 29.988-126.156 31.368-189.391 22.663l-.068.495zM471.4 435.633c61.258-31.201 104.834-89.234 141.506-146.531l-.421-.27c-36.668 57.291-80.183 115.22-141.312 146.355l.227.446zm141.507-146.532c37.371-58.69 70.582-120.072 117.542-168.403l-.359-.349c-47.007 48.38-80.261 109.836-117.605 168.484l.422.268zm117.541-168.403c23.718-24.289 53.21-52.06 84.585-72.212 31.38-20.155 64.6-32.66 95.789-26.492l.097-.49c-31.38-6.207-64.739 6.383-96.156 26.562-31.424 20.183-60.948 47.987-84.672 72.283l.357.349zm180.374-98.704c46.535 9.261 79.26 45.623 108.768 87.873 14.75 21.13 28.68 43.687 43.13 65.072 14.45 21.37 29.42 41.541 46.22 57.831l.35-.359c-16.77-16.253-31.71-36.389-46.15-57.752-14.44-21.35-28.39-43.955-43.14-65.079-29.513-42.258-62.337-78.774-109.081-88.076l-.097.49zM1108.94 232.77c61.71 59.867 152.55 90.374 237.65 78.446l-.07-.496c-84.95 11.907-175.63-18.547-237.23-78.309l-.35.359zm237.65 78.445c4.82-.687 9.41-1.375 14-2.294l-.1-.49c-4.58.915-9.15 1.602-13.97 2.289l.07.495zm14-2.293c47.94-9.29 92.03-31.596 135.44-57.267 43.42-25.679 86.14-54.712 131.4-77.51l-.23-.447c-45.27 22.807-88.04 51.87-131.42 77.527-43.4 25.663-87.43 47.933-135.29 57.206l.1.491zm266.84-134.778c110.2-55.672 236.66-81.783 339.05-68.956l.07-.497c-102.51-12.84-229.07 13.3-339.35 69.007l.23.446zm-1950.955 30.507c51.16-3.204 99.299 12.988 145.346 37.07 46.052 24.084 89.979 56.04 132.736 84.352l.276-.417c-42.731-28.295-86.698-60.278-132.78-84.378-46.088-24.103-94.322-40.338-145.609-37.126l.031.499zm278.082 121.422C54.274 391.86 163.63 442.067 280.103 460.866l.08-.494c-116.384-18.785-225.674-68.956-325.35-134.716l-.276.417zm325.546 134.793c63.507 10.087 131.639 10.095 190.611-20.421l-.23-.444c-58.832 30.444-126.838 30.452-190.302 20.371l-.079.494zm190.61-20.421c61.032-31.432 103.92-90.843 139.447-150.204l-.429-.256C574.209 349.336 531.381 408.638 470.484 440l.229.445zM610.16 290.242c35.997-60.068 67.374-123.28 113.875-173.215l-.366-.341c-46.549 49.986-77.97 113.279-113.938 173.299l.429.257zm113.875-173.215c23.373-25.09 52.98-53.949 84.64-74.816 31.667-20.871 65.343-33.717 96.871-26.864l.106-.488c-31.727-6.897-65.548 6.039-97.252 26.935-31.71 20.9-61.349 49.793-84.731 74.892l.366.341zm181.511-101.68c46.647 10.175 78.857 48.936 107.794 93.71 14.47 22.396 28.09 46.233 42.3 68.768 14.21 22.517 28.99 43.691 45.74 60.67l.35-.351c-16.71-16.939-31.46-38.077-45.66-60.586-14.19-22.49-27.85-46.393-42.31-68.772-28.939-44.776-61.245-83.706-108.108-93.927l-.106.488zm195.834 223.148c61.71 62.622 154.15 93.13 240.41 78.678l-.09-.493c-86.09 14.424-178.37-16.028-239.97-78.536l-.35.351zm240.4 78.679c4.82-.689 9.65-1.838 14.22-2.752l-.09-.491c-4.6.919-9.4 2.062-14.2 2.748l.07.495zm14.23-2.754c48.75-10.895 93.24-35.092 136.9-62.654 43.68-27.57 86.52-58.493 132-82.895l-.23-.441c-45.51 24.412-88.39 55.366-132.03 82.913-43.66 27.554-88.09 51.713-136.75 62.589l.11.488zm268.9-145.55c108.6-58.418 234.6-84.988 342.72-71.245l.06-.496c-108.23-13.758-234.34 12.841-343.01 71.301l.23.44zm-1949.573 28.905c51.385-4.921 99.636 10.87 145.709 35.265 46.079 24.398 89.949 57.385 132.59 86.842l.284-.411c-42.617-29.441-86.527-62.456-132.64-86.873-46.118-24.419-94.47-40.254-145.991-35.321l.048.498zm278.3 122.108c99.027 68.077 207.925 122.182 324.857 143.274l.089-.492c-116.84-21.076-225.672-75.142-324.664-143.194l-.283.412zm324.857 143.274c63.736 11.463 132.329 12.618 191.304-18.129l-.232-.443c-58.829 30.671-127.29 29.535-190.983 18.08l-.089.492zm191.303-18.129c60.805-31.662 103.006-92.681 137.158-153.647l-.436-.244c-34.146 60.955-76.287 121.858-136.953 153.448l.231.443zm137.158-153.647c34.392-61.444 64.165-126.487 110.208-178.025l-.373-.333c-46.091 51.592-75.907 116.72-110.271 178.114l.436.244zm110.208-178.025c23.144-25.891 52.807-55.838 84.696-77.42 31.896-21.587 65.97-34.774 97.953-27.236l.115-.487c-32.19-7.587-66.415 5.696-98.348 27.309-31.94 21.617-61.636 51.6-84.789 77.501l.373.333zM899.812 8.7c46.758 11.089 78.511 52.25 106.928 99.548 7.11 11.821 14 24.02 20.86 36.223 6.87 12.202 13.71 24.409 20.7 36.241 13.98 23.663 28.59 45.841 45.28 63.509l.37-.344c-16.66-17.626-31.24-39.764-45.22-63.419-6.99-11.827-13.83-24.028-20.69-36.232-6.87-12.203-13.76-24.408-20.87-36.235-28.416-47.295-60.263-88.636-107.243-99.777l-.115.486zm193.768 235.52c61.71 65.377 155.77 95.886 243.4 78.911l-.09-.491c-87.47 16.942-181.35-13.51-242.94-78.763l-.37.343zm243.4 78.911c4.82-.918 9.64-2.066 14.45-3.211l-.12-.487c-4.81 1.146-9.62 2.291-14.42 3.207l.09.491zm14.45-3.212c49.55-12.501 94.44-38.59 138.37-68.071 43.93-29.49 86.88-62.36 132.6-88.481l-.25-.434c-45.73 26.131-88.73 59.034-132.63 88.5-43.91 29.473-88.75 55.522-138.21 68.001l.12.485zm270.97-156.552c107.44-61.394 232.76-88.194 346.6-73.992l.07-.497c-113.97-14.216-239.39 12.612-346.92 74.055l.25.434zm-1948.2 27.761c51.61-6.751 99.971 8.694 146.043 33.489 46.076 24.798 89.831 58.93 132.243 89.533l.292-.405c-42.389-30.587-86.184-64.75-132.298-89.568-46.12-24.821-94.591-40.315-146.345-33.545l.065.496zM-47.514 314.15c98.11 70.598 206.778 128.142 324.169 151.985l.1-.49C159.456 441.821 50.854 384.318-47.222 313.744l-.292.406zm324.169 151.985c63.737 13.068 133.02 15.142 192.226-15.836l-.232-.443c-59.055 30.899-128.202 28.848-191.894 15.79l-.1.489zm192.226-15.836c60.808-31.894 102.092-94.291 135.098-157.09l-.443-.233c-33 62.789-74.224 125.063-134.887 156.88l.232.443zm135.098-157.09c33.017-62.822 60.957-129.696 106.313-183.066l-.381-.323c-45.404 53.425-73.386 120.389-106.375 183.156l.443.233zm106.312-183.065c22.799-26.693 52.577-57.727 84.752-79.996C827.226 7.873 861.754-5.597 894.077 2.74l.125-.484c-32.537-8.392-67.224 5.18-99.443 27.48-32.228 22.306-62.038 53.378-84.848 80.083l.38.325zM894.077 2.74c46.871 12.117 78.11 55.623 105.983 105.387 6.97 12.437 13.73 25.259 20.46 38.073 6.74 12.814 13.45 25.621 20.34 38.023 13.77 24.802 28.23 47.998 44.93 66.411l.37-.336c-16.66-18.37-31.1-41.525-44.87-66.318-6.88-12.395-13.59-25.197-20.33-38.012-6.73-12.814-13.49-25.642-20.46-38.085-27.872-49.756-59.2-93.451-106.298-105.627l-.125.484zm191.713 247.894c61.71 68.13 157.6 98.87 246.15 79.141l-.1-.488c-88.38 19.689-184.09-10.99-245.68-78.989l-.37.336zm246.15 79.141c53.91-12.042 101.85-40.254 148.29-72.716 46.47-32.473 91.41-69.178 139.42-98.279l-.26-.427c-48.02 29.109-93.03 65.855-139.44 98.296-46.44 32.452-94.3 60.617-148.11 72.638l.1.488zm287.71-170.995c106.07-64.14 230.92-91.399 350.5-76.28l.06-.497c-119.69-15.133-244.66 12.152-350.82 76.35l.26.427z" fill="#4B515A" mask="url(#path-1-inside-1_28_5729)"/></g></svg>