<svg width="14" height="15" fill="none" xmlns="http://www.w3.org/2000/svg"><path d="M8.2 4.1V2.86c0-.189-.034-.375-.101-.547a1.37 1.37 0 00-.286-.454 1.18 1.18 0 00-.424-.285 1.07 1.07 0 00-.489-.07l-4.8.453c-.3.029-.58.184-.783.435-.204.25-.317.58-.317.92v8.375c0 .341.113.67.317.92.204.252.483.407.783.435l4.8.453c.166.016.332-.007.49-.069a1.18 1.18 0 00.423-.285 1.37 1.37 0 00.286-.455c.067-.172.101-.358.101-.546v-1.241m-.6-3.4H13 7.6zm5.4 0l-2-2.718L13 7.5zm0 0l-2 2.72 2-2.72z" stroke="#fff" stroke-width="1.2" stroke-linecap="round" stroke-linejoin="round"/></svg>