<svg width="55" height="33" fill="none" xmlns="http://www.w3.org/2000/svg"><path d="M3.24 24c-.4 0-.712-.112-.936-.336-.224-.224-.336-.536-.336-.936V8.256c0-.416.104-.728.312-.936.224-.224.536-.336.936-.336s.704.112.912.336c.224.208.336.52.336.936v13.608h7.44c.352 0 .624.096.816.288.192.176.288.432.288.768s-.096.6-.288.792c-.192.192-.464.288-.816.288H3.24zm16.677.216c-1.184 0-2.208-.248-3.072-.744-.848-.496-1.512-1.2-1.992-2.112-.48-.912-.72-1.984-.72-3.216 0-.944.136-1.784.408-2.52a5.533 5.533 0 011.152-1.896 4.895 4.895 0 011.824-1.224c.72-.288 1.52-.432 2.4-.432 1.168 0 2.176.248 3.024.744a5.135 5.135 0 012.016 2.112c.48.896.72 1.968.72 3.216 0 .928-.136 1.768-.408 2.52a5.311 5.311 0 01-1.176 1.92 5.022 5.022 0 01-1.824 1.224c-.704.272-1.488.408-2.352.408zm0-1.872c.656 0 1.232-.16 1.728-.48.496-.32.88-.792 1.152-1.416.288-.624.432-1.392.432-2.304 0-1.376-.304-2.416-.912-3.12-.608-.704-1.408-1.056-2.4-1.056-.672 0-1.256.16-1.752.48-.496.304-.888.768-1.176 1.392-.272.624-.408 1.392-.408 2.304 0 1.36.304 2.4.912 3.12.608.72 1.416 1.08 2.424 1.08zm13.786 6.192a11.92 11.92 0 01-2.52-.264A7.085 7.085 0 0129 27.408c-.24-.128-.4-.288-.48-.48a.934.934 0 01-.072-.552c.048-.192.136-.36.264-.504a.928.928 0 01.456-.288c.192-.048.392-.016.6.096.704.384 1.368.64 1.992.768a8.13 8.13 0 001.776.216c1.12 0 1.96-.288 2.52-.864.56-.56.84-1.392.84-2.496v-2.448h.216a3.563 3.563 0 01-1.512 2.088c-.768.512-1.656.768-2.664.768-1.056 0-1.976-.24-2.76-.72a5.011 5.011 0 01-1.824-2.04c-.432-.88-.648-1.904-.648-3.072 0-.88.12-1.672.36-2.376a5.69 5.69 0 011.056-1.824 4.677 4.677 0 011.656-1.176 5.315 5.315 0 012.16-.432c1.024 0 1.912.256 2.664.768a3.46 3.46 0 011.488 2.088l-.24.408v-1.992c0-.4.104-.704.312-.912.224-.208.52-.312.888-.312.384 0 .68.104.888.312.208.208.312.512.312.912v9.672c0 1.824-.472 3.2-1.416 4.128-.944.928-2.32 1.392-4.128 1.392zm-.192-6.72c.704 0 1.304-.16 1.8-.48.496-.32.88-.776 1.152-1.368.272-.592.408-1.288.408-2.088 0-1.2-.304-2.152-.912-2.856-.592-.704-1.408-1.056-2.448-1.056-.688 0-1.28.16-1.776.48-.496.32-.888.776-1.176 1.368-.272.576-.408 1.264-.408 2.064 0 1.216.304 2.176.912 2.88.608.704 1.424 1.056 2.448 1.056zm14.226 2.4c-1.184 0-2.208-.248-3.072-.744-.848-.496-1.512-1.2-1.992-2.112-.48-.912-.72-1.984-.72-3.216 0-.944.136-1.784.408-2.52a5.533 5.533 0 011.152-1.896 4.895 4.895 0 011.824-1.224c.72-.288 1.52-.432 2.4-.432 1.168 0 2.176.248 3.024.744a5.135 5.135 0 012.016 2.112c.48.896.72 1.968.72 3.216 0 .928-.136 1.768-.408 2.52a5.311 5.311 0 01-1.176 1.92 5.022 5.022 0 01-1.824 1.224c-.704.272-1.488.408-2.352.408zm0-1.872c.656 0 1.232-.16 1.728-.48.496-.32.88-.792 1.152-1.416.288-.624.432-1.392.432-2.304 0-1.376-.304-2.416-.912-3.12-.608-.704-1.408-1.056-2.4-1.056-.672 0-1.256.16-1.752.48-.496.304-.888.768-1.176 1.392-.272.624-.408 1.392-.408 2.304 0 1.36.304 2.4.912 3.12.608.72 1.416 1.08 2.424 1.08z" fill="#fff"/></svg>